<?xml version="1.0" encoding="utf-8"?>
<!-- Generator: Adobe Illustrator 16.0.0, SVG Export Plug-In . SVG Version: 6.00 Build 0)  -->
<!DOCTYPE svg PUBLIC "-//W3C//DTD SVG 1.1//EN" "http://www.w3.org/Graphics/SVG/1.1/DTD/svg11.dtd">
<svg version="1.1" id="Layer_1" xmlns="http://www.w3.org/2000/svg" xmlns:xlink="http://www.w3.org/1999/xlink" x="0px" y="0px"
	 width="338.789px" height="31.875px" viewBox="0 0 338.789 31.875" enable-background="new 0 0 338.789 31.875"
	 xml:space="preserve">
<g>
	<path fill="#25D3D3" d="M0,31.875V7.5h1.875V5.625H3.75V7.5h13.125v1.875h-15V30h15v1.875H0z M3.75,5.625V3.75h1.875v1.875H3.75z
		 M5.625,3.75V1.875H7.5V3.75H5.625z M20.625,3.75V1.875H7.5V0h16.875v1.875H22.5V3.75H20.625z M7.5,16.875V15h9.375v1.875H7.5z
		 M7.5,24.375V22.5h9.375v1.875H7.5z M16.875,7.5V5.625h1.875V7.5H16.875z M16.875,11.25V9.375h1.875v1.875H16.875z M16.875,20.625
		V18.75h3.75v1.875H16.875z M16.875,30v-1.875h1.875V30H16.875z M18.75,5.625V3.75h1.875v1.875H18.75z M18.75,13.125V11.25h1.875
		v1.875H18.75z M18.75,28.125V26.25h1.875v1.875H18.75z M20.625,15v-1.875H22.5V15H20.625z M20.625,18.75v-1.875H22.5v1.875H20.625z
		 M20.625,22.5v-1.875H22.5V22.5H20.625z M20.625,26.25v-1.875H22.5v1.875H20.625z M22.5,16.875V15h1.875v1.875H22.5z M22.5,24.375
		V22.5h1.875v1.875H22.5z M24.375,3.75V1.875h1.875V3.75H24.375z M24.375,15v-1.875h1.875V15H24.375z M24.375,22.5v-1.875h1.875
		V22.5H24.375z M26.25,5.625V3.75h1.875v1.875H26.25z M26.25,13.125V11.25h1.875v1.875H26.25z M26.25,20.625V18.75h1.875v1.875
		H26.25z M28.125,7.5V5.625H30V7.5H28.125z M28.125,11.25V9.375H30v1.875H28.125z M28.125,15v-1.875H30V15H28.125z M28.125,18.75
		v-1.875H30v1.875H28.125z M30,9.375V7.5h1.875v1.875H30z M30,16.875V15h1.875v1.875H30z"/>
	<path fill="#25D3D3" d="M34.102,31.875V7.5h1.875V5.625h1.875V7.5h5.625v13.125h1.875V22.5h3.75v-3.75h-1.875v-1.875h1.875V3.75
		h-1.875V1.875h-5.625V0h9.375v5.625h1.875V7.5h5.625v20.625h1.875V30h-1.875v1.875H34.102z M56.602,30V9.375h-5.625v15h-9.375v-15
		h-5.625V30H56.602z M37.852,5.625V3.75h1.875v1.875H37.852z M39.727,3.75V1.875h1.875V3.75H39.727z M43.477,7.5V5.625h1.875V7.5
		H43.477z M45.352,5.625V3.75h1.875v1.875H45.352z M45.352,20.625V18.75h1.875v1.875H45.352z M52.852,5.625V3.75h1.875v1.875H52.852
		z M54.727,3.75V1.875h1.875V3.75H54.727z M64.102,24.375V3.75h-1.875V1.875h-5.625V0h9.375v24.375H64.102z M58.477,7.5V5.625h1.875
		V7.5H58.477z M60.352,5.625V3.75h1.875v1.875H60.352z M60.352,28.125V26.25h1.875v1.875H60.352z M62.227,26.25v-1.875h1.875v1.875
		H62.227z"/>
	<path fill="#25D3D3" d="M77.578,18.75v-1.875h-1.875v-7.5h-5.625v7.5h-1.875V7.5h1.875V5.625h1.875V7.5h5.625V15h1.875v3.75H77.578
		z M70.078,18.75v-1.875h1.875v1.875H70.078z M71.953,5.625V3.75h1.875v1.875H71.953z M71.953,20.625V18.75h1.875v1.875H71.953z
		 M73.828,3.75V1.875h1.875V3.75H73.828z M73.828,22.5v-1.875h1.875V22.5H73.828z M90.703,24.375V18.75h-1.875v-1.875h1.875v-7.5
		h-5.625v7.5h-1.875v-3.75h-1.875V11.25h1.875v-7.5h-1.875V1.875h-5.625V0h9.375v3.75h1.875v1.875h-1.875V7.5h7.5v5.625h1.875V15
		h-1.875v9.375H90.703z M75.703,31.875V22.5h1.875V30h5.625v-7.5h1.875v5.625h1.875V30h-1.875v1.875H75.703z M77.578,7.5V5.625
		h1.875V7.5H77.578z M79.453,5.625V3.75h1.875v1.875H79.453z M79.453,15v-1.875h1.875V15H79.453z M79.453,20.625V18.75h1.875v1.875
		H79.453z M81.328,18.75v-1.875h1.875v1.875H81.328z M85.078,22.5v-1.875h1.875V22.5H85.078z M86.953,3.75V1.875h1.875V3.75H86.953z
		 M86.953,20.625V18.75h1.875v1.875H86.953z M86.953,28.125V26.25h1.875v1.875H86.953z M98.203,9.375V3.75h-1.875V1.875h-7.5V0
		h11.25v9.375H98.203z M88.828,26.25v-1.875h1.875v1.875H88.828z M92.578,7.5V5.625h1.875V7.5H92.578z M94.453,5.625V3.75h1.875
		v1.875H94.453z M94.453,13.125V11.25h1.875v1.875H94.453z M96.328,11.25V9.375h1.875v1.875H96.328z"/>
	<path fill="#25D3D3" d="M124.805,31.875v-15h-7.5V7.5h1.875V5.625h1.875V7.5h20.625v5.625h1.875V15h-1.875v9.375h-1.875v-7.5
		h-5.625v11.25h1.875V30h-1.875v1.875H124.805z M132.305,30V15h7.5V9.375H119.18V15h7.5v15H132.305z M121.055,5.625V3.75h1.875
		v1.875H121.055z M122.93,3.75V1.875h1.875V3.75H122.93z M147.305,9.375V3.75h-1.875V1.875h-20.625V0h24.375v9.375H147.305z
		 M136.055,28.125V26.25h1.875v1.875H136.055z M137.93,26.25v-1.875h1.875v1.875H137.93z M141.68,7.5V5.625h1.875V7.5H141.68z
		 M143.555,5.625V3.75h1.875v1.875H143.555z M143.555,13.125V11.25h1.875v1.875H143.555z M145.43,11.25V9.375h1.875v1.875H145.43z"
		/>
	<path fill="#25D3D3" d="M151.406,31.875V22.5h1.875v-1.875h1.875V22.5h3.75v-3.75h-1.875v-1.875h-5.625V7.5h1.875V5.625h1.875V7.5
		h20.625v5.625h1.875V15h5.625v9.375h-1.875V18.75h-1.875v-1.875h-5.625v1.875h-1.875v-1.875h-3.75v3.75h1.875V22.5h5.625v5.625
		h1.875V30h-1.875v1.875H151.406z M173.906,30v-5.625h-7.5V15h7.5V9.375h-20.625V15h7.5v9.375h-7.5V30H173.906z M155.156,5.625V3.75
		h1.875v1.875H155.156z M155.156,20.625V18.75h1.875v1.875H155.156z M157.031,3.75V1.875h1.875V3.75H157.031z M181.406,9.375V3.75
		h-1.875V1.875h-20.625V0h24.375v9.375H181.406z M170.156,20.625V18.75h1.875v1.875H170.156z M175.781,7.5V5.625h1.875V7.5H175.781z
		 M175.781,22.5v-1.875h1.875V22.5H175.781z M177.656,5.625V3.75h1.875v1.875H177.656z M177.656,13.125V11.25h1.875v1.875H177.656z
		 M177.656,20.625V18.75h1.875v1.875H177.656z M177.656,28.125V26.25h1.875v1.875H177.656z M179.531,11.25V9.375h1.875v1.875
		H179.531z M179.531,26.25v-1.875h1.875v1.875H179.531z"/>
	<path fill="#25D3D3" d="M185.508,31.875V7.5h1.875V5.625h1.875V7.5h20.625v5.625h1.875V15h5.625v9.375h-1.875V18.75h-1.875v-1.875
		h-13.125v1.875h-1.875v-1.875h-3.75v3.75h1.875V22.5h13.125v5.625h1.875V30h-1.875v1.875H185.508z M208.008,30v-5.625h-15V15h15
		V9.375h-20.625V30H208.008z M189.258,5.625V3.75h1.875v1.875H189.258z M191.133,3.75V1.875h1.875V3.75H191.133z M215.508,9.375
		V3.75h-1.875V1.875h-20.625V0h24.375v9.375H215.508z M196.758,20.625V18.75h1.875v1.875H196.758z M209.883,7.5V5.625h1.875V7.5
		H209.883z M209.883,22.5v-1.875h1.875V22.5H209.883z M211.758,5.625V3.75h1.875v1.875H211.758z M211.758,13.125V11.25h1.875v1.875
		H211.758z M211.758,20.625V18.75h1.875v1.875H211.758z M211.758,28.125V26.25h1.875v1.875H211.758z M213.633,11.25V9.375h1.875
		v1.875H213.633z M213.633,26.25v-1.875h1.875v1.875H213.633z"/>
	<path fill="#25D3D3" d="M219.609,31.875V7.5h1.875V5.625h1.875V7.5h5.625v5.625h1.875V15h-1.875v1.875h-1.875v-7.5h-5.625V30h5.625
		v-7.5h1.875v1.875h1.875v1.875h-1.875v1.875h1.875V30h-1.875v1.875H219.609z M223.359,5.625V3.75h1.875v1.875H223.359z
		 M225.234,3.75V1.875h1.875V3.75H225.234z M242.109,13.125v-3.75h-7.5V3.75h-1.875V1.875h-5.625V0h9.375v5.625h1.875V7.5h5.625
		v1.875h1.875v1.875h-1.875v1.875H242.109z M228.984,7.5V5.625h1.875V7.5H228.984z M230.859,5.625V3.75h1.875v1.875H230.859z
		 M230.859,13.125V11.25h1.875v1.875H230.859z M230.859,28.125V26.25h1.875v1.875H230.859z M232.734,11.25V9.375h1.875v1.875
		H232.734z M232.734,30v-1.875h1.875V30H232.734z M234.609,20.625V18.75h1.875v1.875H234.609z M234.609,31.875V30h7.5v-3.75h1.875
		v1.875h1.875V30h-1.875v1.875H234.609z M236.484,18.75v-1.875h1.875v1.875H236.484z M236.484,22.5v-1.875h1.875V22.5H236.484z
		 M238.359,5.625V3.75h1.875v1.875H238.359z M238.359,16.875V15h1.875v1.875H238.359z M238.359,24.375V22.5h1.875v1.875H238.359z
		 M240.234,3.75V1.875h1.875V3.75H240.234z M240.234,15v-1.875h1.875V15H240.234z M240.234,26.25v-1.875h1.875v1.875H240.234z
		 M249.609,5.625V3.75h-1.875V1.875h-5.625V0h9.375v5.625H249.609z M243.984,7.5V5.625h1.875V7.5H243.984z M243.984,15v-1.875h1.875
		V15H243.984z M243.984,26.25v-1.875h1.875v1.875H243.984z M245.859,5.625V3.75h1.875v1.875H245.859z M245.859,9.375V7.5h1.875
		v1.875H245.859z M245.859,16.875V15h1.875v1.875H245.859z M245.859,24.375V22.5h1.875v1.875H245.859z M245.859,28.125V26.25h1.875
		v1.875H245.859z M247.734,7.5V5.625h1.875V7.5H247.734z M247.734,18.75v-1.875h1.875v1.875H247.734z M249.609,24.375V22.5h-1.875
		v-1.875h1.875V18.75h1.875v5.625H249.609z M247.734,26.25v-1.875h1.875v1.875H247.734z"/>
	<path fill="#25D3D3" d="M253.711,31.875V7.5h1.875V5.625h1.875V7.5h20.625v5.625h1.875V15h5.625v9.375h-1.875V18.75h-1.875v-1.875
		h-5.625v1.875h-1.875v-1.875h-3.75v3.75h1.875V22.5h5.625v5.625h1.875V30h-1.875v1.875H253.711z M276.211,30v-5.625h-15V22.5h7.5
		v-5.625h-7.5V15h15V9.375h-20.625V30H276.211z M257.461,5.625V3.75h1.875v1.875H257.461z M259.336,3.75V1.875h1.875V3.75H259.336z
		 M283.711,9.375V3.75h-1.875V1.875h-20.625V0h24.375v9.375H283.711z M272.461,20.625V18.75h1.875v1.875H272.461z M278.086,7.5
		V5.625h1.875V7.5H278.086z M278.086,22.5v-1.875h1.875V22.5H278.086z M279.961,5.625V3.75h1.875v1.875H279.961z M279.961,13.125
		V11.25h1.875v1.875H279.961z M279.961,20.625V18.75h1.875v1.875H279.961z M279.961,28.125V26.25h1.875v1.875H279.961z
		 M281.836,11.25V9.375h1.875v1.875H281.836z M281.836,26.25v-1.875h1.875v1.875H281.836z"/>
	<path fill="#25D3D3" d="M295.313,31.875v-15h-7.5V7.5h1.875V5.625h1.875V7.5h20.625v5.625h1.875V15h-1.875v9.375h-1.875v-7.5
		h-5.625v11.25h1.875V30h-1.875v1.875H295.313z M302.813,30V15h7.5V9.375h-20.625V15h7.5v15H302.813z M291.563,5.625V3.75h1.875
		v1.875H291.563z M293.438,3.75V1.875h1.875V3.75H293.438z M317.813,9.375V3.75h-1.875V1.875h-20.625V0h24.375v9.375H317.813z
		 M306.563,28.125V26.25h1.875v1.875H306.563z M308.438,26.25v-1.875h1.875v1.875H308.438z M312.188,7.5V5.625h1.875V7.5H312.188z
		 M314.063,5.625V3.75h1.875v1.875H314.063z M314.063,13.125V11.25h1.875v1.875H314.063z M315.938,11.25V9.375h1.875v1.875H315.938z
		"/>
	<path fill="#25D3D3" d="M321.914,31.875V7.5h1.875V5.625h1.875V7.5h5.625v13.125h1.875V22.5h-1.875v5.625h1.875V30h-1.875v1.875
		H321.914z M329.414,22.5V9.375h-5.625V22.5H329.414z M329.414,30v-5.625h-5.625V30H329.414z M325.664,5.625V3.75h1.875v1.875
		H325.664z M327.539,3.75V1.875h1.875V3.75H327.539z M336.914,24.375V18.75h-1.875v-1.875h1.875V3.75h-1.875V1.875h-5.625V0h9.375
		v24.375H336.914z M331.289,7.5V5.625h1.875V7.5H331.289z M333.164,5.625V3.75h1.875v1.875H333.164z M333.164,20.625V18.75h1.875
		v1.875H333.164z M333.164,28.125V26.25h1.875v1.875H333.164z M335.039,26.25v-1.875h1.875v1.875H335.039z"/>
</g>
</svg>
