<?xml version="1.0" encoding="utf-8"?>
<!-- Generator: Adobe Illustrator 16.0.0, SVG Export Plug-In . SVG Version: 6.00 Build 0)  -->
<!DOCTYPE svg PUBLIC "-//W3C//DTD SVG 1.1//EN" "http://www.w3.org/Graphics/SVG/1.1/DTD/svg11.dtd">
<svg version="1.1" id="Layer_1" xmlns="http://www.w3.org/2000/svg" xmlns:xlink="http://www.w3.org/1999/xlink" x="0px" y="0px"
	 width="288.703px" height="38.25px" viewBox="0 0 288.703 38.25" enable-background="new 0 0 288.703 38.25" xml:space="preserve">
<g>
	<path fill="#D3D3D3" d="M0,38.25V9h2.25V6.75H4.5V9h24.75v6.75h2.25V18h6.75v11.25H36V22.5h-2.25v-2.25H18v2.25h-2.25v-2.25h-4.5
		v4.5h2.25V27h15.75v6.75h2.25V36h-2.25v2.25H0z M27,36v-6.75H9V18h18v-6.75H2.25V36H27z M4.5,6.75V4.5h2.25v2.25H4.5z M6.75,4.5
		V2.25H9V4.5H6.75z M36,11.25V4.5h-2.25V2.25H9V0h29.25v11.25H36z M13.5,24.75V22.5h2.25v2.25H13.5z M29.25,9V6.75h2.25V9H29.25z
		 M29.25,27v-2.25h2.25V27H29.25z M31.5,6.75V4.5h2.25v2.25H31.5z M31.5,15.75V13.5h2.25v2.25H31.5z M31.5,24.75V22.5h2.25v2.25
		H31.5z M31.5,33.75V31.5h2.25v2.25H31.5z M33.75,13.5v-2.25H36v2.25H33.75z M33.75,31.5v-2.25H36v2.25H33.75z"/>
	<path fill="#D3D3D3" d="M40.922,38.25V9h2.25V6.75h2.25V9h6.75v15.75h2.25V27h15.75v6.75h2.25V36h-2.25v2.25H40.922z M67.922,36
		v-6.75h-18v-18h-6.75V36H67.922z M45.422,6.75V4.5h2.25v2.25H45.422z M47.672,4.5V2.25h2.25V4.5H47.672z M76.922,29.25V22.5h-2.25
		v-2.25h-15.75V4.5h-2.25V2.25h-6.75V0h11.25v18h18v11.25H76.922z M52.172,9V6.75h2.25V9H52.172z M54.422,6.75V4.5h2.25v2.25H54.422
		z M54.422,24.75V22.5h2.25v2.25H54.422z M56.672,22.5v-2.25h2.25v2.25H56.672z M70.172,27v-2.25h2.25V27H70.172z M72.422,24.75
		V22.5h2.25v2.25H72.422z M72.422,33.75V31.5h2.25v2.25H72.422z M74.672,31.5v-2.25h2.25v2.25H74.672z"/>
	<path fill="#D3D3D3" d="M81.844,38.25V9h2.25V6.75h2.25V9h24.75v24.75h2.25V36h-2.25v2.25H81.844z M108.844,36V11.25h-24.75V36
		H108.844z M86.344,6.75V4.5h2.25v2.25H86.344z M88.594,4.5V2.25h2.25V4.5H88.594z M117.844,29.25V4.5h-2.25V2.25h-24.75V0h29.25
		v29.25H117.844z M90.844,29.25V18h11.25v11.25H90.844z M99.844,27v-4.5h-2.25v-2.25h-4.5v4.5h2.25V27H99.844z M95.344,24.75V22.5
		h2.25v2.25H95.344z M111.094,9V6.75h2.25V9H111.094z M113.344,6.75V4.5h2.25v2.25H113.344z M113.344,33.75V31.5h2.25v2.25H113.344z
		 M115.594,31.5v-2.25h2.25v2.25H115.594z"/>
	<path fill="#D3D3D3" d="M122.766,38.25V9h2.25V6.75h2.25V9h24.75v6.75h2.25V18h-2.25v15.75h2.25V36h-2.25v2.25H122.766z
		 M149.766,36V20.25h-18V18h18v-6.75h-24.75V27h18v2.25h-18V36H149.766z M127.266,6.75V4.5h2.25v2.25H127.266z M129.516,4.5V2.25
		h2.25V4.5H129.516z M158.766,29.25V13.5h-2.25v-2.25h2.25V4.5h-2.25V2.25h-24.75V0h29.25v29.25H158.766z M152.016,9V6.75h2.25V9
		H152.016z M154.266,6.75V4.5h2.25v2.25H154.266z M154.266,15.75V13.5h2.25v2.25H154.266z M154.266,33.75V31.5h2.25v2.25H154.266z
		 M156.516,31.5v-2.25h2.25v2.25H156.516z"/>
	<path fill="#D3D3D3" d="M163.688,38.25V9h2.25V6.75h2.25V9h24.75v6.75h2.25V18h6.75v11.25h-2.25V22.5h-2.25v-2.25h-6.75v2.25h-2.25
		v-2.25h-4.5v4.5h2.25V27h6.75v6.75h2.25V36h-2.25v2.25H163.688z M190.688,36v-6.75h-18V27h9v-6.75h-9V18h18v-6.75h-24.75V36
		H190.688z M168.188,6.75V4.5h2.25v2.25H168.188z M170.438,4.5V2.25h2.25V4.5H170.438z M199.688,11.25V4.5h-2.25V2.25h-24.75V0
		h29.25v11.25H199.688z M186.188,24.75V22.5h2.25v2.25H186.188z M192.938,9V6.75h2.25V9H192.938z M192.938,27v-2.25h2.25V27H192.938
		z M195.188,6.75V4.5h2.25v2.25H195.188z M195.188,15.75V13.5h2.25v2.25H195.188z M195.188,24.75V22.5h2.25v2.25H195.188z
		 M195.188,33.75V31.5h2.25v2.25H195.188z M197.438,13.5v-2.25h2.25v2.25H197.438z M197.438,31.5v-2.25h2.25v2.25H197.438z"/>
	<path fill="#D3D3D3" d="M204.609,38.25V9h2.25V6.75h2.25V9h15.75v2.25h-18V36h18v2.25H204.609z M209.109,6.75V4.5h2.25v2.25
		H209.109z M211.359,4.5V2.25h2.25V4.5H211.359z M229.359,4.5V2.25h-15.75V0h20.25v2.25h-2.25V4.5H229.359z M213.609,29.25V18h6.75
		v2.25h-4.5v4.5h2.25V27h2.25v2.25H213.609z M218.109,24.75V22.5h2.25v2.25H218.109z M220.359,22.5v-2.25h2.25v2.25H220.359z
		 M220.359,27v-2.25h2.25V27H220.359z M222.609,24.75V22.5h2.25v2.25H222.609z M224.859,9V6.75h2.25V9H224.859z M224.859,13.5v-2.25
		h2.25v2.25H224.859z M224.859,36v-2.25h2.25V36H224.859z M227.109,6.75V4.5h2.25v2.25H227.109z M227.109,15.75V13.5h2.25v2.25
		H227.109z M227.109,33.75V31.5h2.25v2.25H227.109z M229.359,18v-2.25h2.25V18H229.359z M229.359,31.5v-2.25h2.25v2.25H229.359z
		 M231.609,29.25V18h2.25v6.75h2.25V27h-2.25v2.25H231.609z M233.859,4.5V2.25h2.25V4.5H233.859z M233.859,18v-2.25h2.25V18H233.859
		z M236.109,6.75V4.5h2.25v2.25H236.109z M236.109,15.75V13.5h2.25v2.25H236.109z M236.109,24.75V22.5h2.25v2.25H236.109z
		 M238.359,9V6.75h2.25V9H238.359z M240.609,20.25V13.5h-2.25v-2.25h2.25V9h2.25v11.25H240.609z M238.359,22.5v-2.25h2.25v2.25
		H238.359z"/>
	<path fill="#D3D3D3" d="M245.531,38.25V9h2.25V6.75h2.25V9h6.75v15.75h2.25V27h-2.25v6.75h2.25V36h-2.25v2.25H245.531z M254.531,27
		V11.25h-6.75V27H254.531z M254.531,36v-6.75h-6.75V36H254.531z M250.031,6.75V4.5h2.25v2.25H250.031z M252.281,4.5V2.25h2.25V4.5
		H252.281z M263.531,29.25V22.5h-2.25v-2.25h2.25V4.5h-2.25V2.25h-6.75V0h11.25v29.25H263.531z M256.781,9V6.75h2.25V9H256.781z
		 M259.031,6.75V4.5h2.25v2.25H259.031z M259.031,24.75V22.5h2.25v2.25H259.031z M259.031,33.75V31.5h2.25v2.25H259.031z
		 M261.281,31.5v-2.25h2.25v2.25H261.281z"/>
	<path fill="#D3D3D3" d="M268.453,38.25V9h2.25V6.75h2.25V9h6.75v15.75h2.25V27h-2.25v6.75h2.25V36h-2.25v2.25H268.453z M277.453,27
		V11.25h-6.75V27H277.453z M277.453,36v-6.75h-6.75V36H277.453z M272.953,6.75V4.5h2.25v2.25H272.953z M275.203,4.5V2.25h2.25V4.5
		H275.203z M286.453,29.25V22.5h-2.25v-2.25h2.25V4.5h-2.25V2.25h-6.75V0h11.25v29.25H286.453z M279.703,9V6.75h2.25V9H279.703z
		 M281.953,6.75V4.5h2.25v2.25H281.953z M281.953,24.75V22.5h2.25v2.25H281.953z M281.953,33.75V31.5h2.25v2.25H281.953z
		 M284.203,31.5v-2.25h2.25v2.25H284.203z"/>
</g>
</svg>
