<?xml version="1.0" encoding="utf-8"?>
<!-- Generator: Adobe Illustrator 16.0.0, SVG Export Plug-In . SVG Version: 6.00 Build 0)  -->
<!DOCTYPE svg PUBLIC "-//W3C//DTD SVG 1.1//EN" "http://www.w3.org/Graphics/SVG/1.1/DTD/svg11.dtd">
<svg version="1.1" id="Layer_1" xmlns="http://www.w3.org/2000/svg" xmlns:xlink="http://www.w3.org/1999/xlink" x="0px" y="0px"
	 width="325px" height="325px" viewBox="0 0 325 325" enable-background="new 0 0 325 325" xml:space="preserve">
<g>
	<g>
		<linearGradient id="SVGID_1_" gradientUnits="userSpaceOnUse" x1="-4.8599" y1="68.7495" x2="337.1671" y2="68.7495">
			<stop  offset="0" style="stop-color:#28E973"/>
			<stop  offset="0.5" style="stop-color:#EC3CE0"/>
			<stop  offset="1" style="stop-color:#25DFDF"/>
		</linearGradient>
		<path fill="url(#SVGID_1_)" d="M0,325V100h25V75h25v25h175v100h25v25h-25v50h25v25h-25v25H0z M200,300v-50H100v-25h100V125H25v175
			H200z M50,75V50h25v25H50z M75,50V25h25v25H75z M300,225v-50h-25v-25h25V50h-25V25H100V0h225v225H300z M100,175v-25h25v25H100z
			 M225,100V75h25v25H225z M250,75V50h25v25H250z M250,200v-25h25v25H250z M250,275v-25h25v25H250z M275,250v-25h25v25H275z"/>
	</g>
</g>
</svg>
