<?xml version="1.0" encoding="utf-8"?>
<!-- Generator: Adobe Illustrator 16.0.0, SVG Export Plug-In . SVG Version: 6.00 Build 0)  -->
<!DOCTYPE svg PUBLIC "-//W3C//DTD SVG 1.1//EN" "http://www.w3.org/Graphics/SVG/1.1/DTD/svg11.dtd">
<svg version="1.1" id="ico" xmlns="http://www.w3.org/2000/svg" xmlns:xlink="http://www.w3.org/1999/xlink" x="0px" y="0px"
	 width="159.859px" height="50.916px" viewBox="0 0 159.859 50.916" enable-background="new 0 0 159.859 50.916"
	 xml:space="preserve">
<g>
	<path fill="#D3D3D3" d="M0,50.745V35.82h2.985v-2.985H5.97v2.985h5.97v-5.97H8.955v-2.985H0V11.94h2.985V8.955H5.97v2.985h32.835
		v8.955h2.985v2.985h8.955v14.925H47.76V29.85h-2.985v-2.985H35.82v2.985h-2.985v-2.985h-5.97v5.97h2.985v2.985h8.955v8.955h2.985
		v2.985h-2.985v2.985H0z M35.82,47.76v-8.955H23.88V23.88h11.94v-8.955H2.985v8.955h11.94v14.925H2.985v8.955H35.82z M5.97,8.955
		V5.97h2.985v2.985H5.97z M5.97,32.835V29.85h2.985v2.985H5.97z M8.955,5.97V2.985h2.985V5.97H8.955z M47.76,14.925V5.97h-2.985
		V2.985H11.94V0h38.805v14.925H47.76z M29.85,32.835V29.85h2.985v2.985H29.85z M38.805,11.94V8.955h2.985v2.985H38.805z
		 M38.805,35.82v-2.985h2.985v2.985H38.805z M41.79,8.955V5.97h2.985v2.985H41.79z M41.79,20.895V17.91h2.985v2.985H41.79z
		 M41.79,32.835V29.85h2.985v2.985H41.79z M41.79,44.775V41.79h2.985v2.985H41.79z M44.774,17.91v-2.985h2.985v2.985H44.774z
		 M44.774,41.79v-2.985h2.985v2.985H44.774z"/>
	<path fill="#D3D3D3" d="M54.289,50.745V11.94h2.985V8.955h2.985v2.985h32.834v8.955h2.985v2.985h8.955v14.925h-2.985V29.85h-2.985
		v-2.985H78.169v2.985h-2.985v-2.985h-5.97v5.97h2.985v2.985h20.895v8.955h2.985v2.985h-2.985v2.985H54.289z M90.109,47.76v-8.955
		H66.229V23.88h23.879v-8.955H57.274V47.76H90.109z M60.259,8.955V5.97h2.985v2.985H60.259z M63.244,5.97V2.985h2.985V5.97H63.244z
		 M102.049,14.925V5.97h-2.985V2.985H66.229V0h38.805v14.925H102.049z M72.199,32.835V29.85h2.985v2.985H72.199z M93.094,11.94
		V8.955h2.985v2.985H93.094z M93.094,35.82v-2.985h2.985v2.985H93.094z M96.079,8.955V5.97h2.985v2.985H96.079z M96.079,20.895
		V17.91h2.985v2.985H96.079z M96.079,32.835V29.85h2.985v2.985H96.079z M96.079,44.775V41.79h2.985v2.985H96.079z M99.064,17.91
		v-2.985h2.985v2.985H99.064z M99.064,41.79v-2.985h2.985v2.985H99.064z"/>
	<path fill="#D3D3D3" d="M108.579,50.745V11.94h2.985V8.955h2.985v2.985h32.834v32.835h2.985v2.985h-2.985v2.985H108.579z
		 M144.398,47.76V14.925h-32.835V47.76H144.398z M114.549,8.955V5.97h2.985v2.985H114.549z M117.534,5.97V2.985h2.985V5.97H117.534z
		 M156.338,38.805V5.97h-2.985V2.985h-32.835V0h38.805v38.805H156.338z M120.519,38.805V23.88h14.925v14.925H120.519z
		 M132.458,35.82v-5.97h-2.985v-2.985h-5.97v5.97h2.985v2.985H132.458z M126.488,32.835V29.85h2.985v2.985H126.488z M147.383,11.94
		V8.955h2.985v2.985H147.383z M150.368,8.955V5.97h2.985v2.985H150.368z M150.368,44.775V41.79h2.985v2.985H150.368z M153.354,41.79
		v-2.985h2.985v2.985H153.354z"/>
</g>
</svg>
