<?xml version="1.0" encoding="utf-8"?>
<!-- Generator: Adobe Illustrator 16.0.0, SVG Export Plug-In . SVG Version: 6.00 Build 0)  -->
<!DOCTYPE svg PUBLIC "-//W3C//DTD SVG 1.1//EN" "http://www.w3.org/Graphics/SVG/1.1/DTD/svg11.dtd">
<svg version="1.1" xmlns="http://www.w3.org/2000/svg" xmlns:xlink="http://www.w3.org/1999/xlink" x="0px" y="0px" width="425px"
	 height="423.119px" viewBox="0 0 425 423.119" enable-background="new 0 0 425 423.119" xml:space="preserve">
<g id="shapes" display="none">
	<path display="inline" fill="#00FF00" d="M458.5,329.56v327h327v-327H458.5z M734.5,605.56h-225v-225h225V605.56z"/>
	<polygon display="inline" fill="#00FF00" points="838.194,494.56 1083.5,494.56 1083.5,249.254 	"/>
</g>
<g id="Layer_1_copy" display="none">
	<polygon display="inline" fill="#00FF00" points="712.5,329.56 712.5,380.56 734.5,380.56 734.5,605.56 509.5,605.56 509.5,380.56 
		564.5,380.56 564.5,329.56 458.5,329.56 458.5,656.56 785.5,656.56 785.5,329.56 	"/>
	<polygon display="inline" fill="#00FF00" points="564.5,426.622 639.086,352.035 564.5,277.449 	"/>
</g>
<g id="Layer_3">
	<polygon fill="#D3D3D3" points="269.5,50.56 269.5,101.56 324.5,101.56 324.5,326.56 99.5,326.56 99.5,101.56 153.5,101.56 
		153.5,149.172 228.086,74.585 153.5,0 153.5,50.56 48.5,50.56 48.5,377.56 375.5,377.56 375.5,50.56 	"/>
</g>
</svg>
