<?xml version="1.0" encoding="utf-8"?>
<!-- Generator: Adobe Illustrator 16.0.0, SVG Export Plug-In . SVG Version: 6.00 Build 0)  -->
<!DOCTYPE svg PUBLIC "-//W3C//DTD SVG 1.1//EN" "http://www.w3.org/Graphics/SVG/1.1/DTD/svg11.dtd">
<svg version="1.1" id="Layer_2" xmlns="http://www.w3.org/2000/svg" xmlns:xlink="http://www.w3.org/1999/xlink" x="0px" y="0px"
	 width="158.473px" height="50.473px" viewBox="0 0 158.473 50.473" enable-background="new 0 0 158.473 50.473"
	 xml:space="preserve">
<g>
	<path fill="#EC3CE0" d="M27,50.695V11.928h2.982V8.947h2.981v2.981h8.946v2.982H29.982v32.802h8.945V23.856h2.982v8.946h2.982
		v5.965H41.91v5.964h2.982v2.981H41.91v2.982H27z M32.964,8.947V5.964h2.982v2.982H32.964z M35.946,5.964V2.983h2.981v2.981H35.946z
		 M47.874,5.964V2.983h-8.946V0h14.91v2.982h-2.982v2.981H47.874z M41.91,11.928V8.947h2.982v2.981H41.91z M41.91,17.893V14.91
		h2.982v2.982H41.91z M44.892,8.947V5.964h2.981v2.982H44.892z M44.892,23.856v-5.963h2.981v5.963H44.892z M44.892,44.731v-5.964
		h2.981v5.964H44.892z M50.855,50.695v-2.982h11.929V14.91h-8.946v23.856h-2.982v-8.946h-2.981v-5.965h2.981V11.928h2.982V8.947
		h2.982v2.981h8.945v32.803h2.982v2.981h-2.982v2.982H50.855z M47.874,47.712v-2.981h2.981v2.981H47.874z M53.838,5.964V2.983h2.982
		v2.981H53.838z M56.82,8.947V5.964h2.982v2.982H56.82z M59.802,5.964V2.983h2.981v2.981H59.802z M74.713,38.767V5.964H71.73V2.983
		h-8.946V0h14.91v38.767H74.713z M65.765,11.928V8.947h2.982v2.981H65.765z M68.748,8.947V5.964h2.982v2.982H68.748z M68.748,44.731
		v-2.982h2.982v2.982H68.748z M71.73,41.748v-2.981h2.982v2.981H71.73z"/>
	<path fill="#EC3CE0" d="M81.235,50.695V11.928h2.981V8.947h2.982v2.981h32.803v32.803h2.981v2.981h-2.981v2.982H81.235z
		 M117.019,47.712V14.91H84.217v32.802H117.019z M87.199,8.947V5.964h2.982v2.982H87.199z M90.181,5.964V2.983h2.981v2.981H90.181z
		 M128.947,38.767V5.964h-2.981V2.983H93.163V0h38.767v38.767H128.947z M93.163,38.767V23.856h14.91v14.911H93.163z M105.092,35.784
		v-5.964h-2.982v-2.982h-5.964v5.964h2.982v2.982H105.092z M99.128,32.802v-2.981h2.981v2.981H99.128z M120.002,11.928V8.947h2.981
		v2.981H120.002z M122.983,8.947V5.964h2.982v2.982H122.983z M122.983,44.731v-2.982h2.982v2.982H122.983z M125.966,41.748v-2.981
		h2.981v2.981H125.966z"/>
</g>
</svg>
