<?xml version="1.0" encoding="utf-8"?>
<!-- Generator: Adobe Illustrator 16.0.0, SVG Export Plug-In . SVG Version: 6.00 Build 0)  -->
<!DOCTYPE svg PUBLIC "-//W3C//DTD SVG 1.1//EN" "http://www.w3.org/Graphics/SVG/1.1/DTD/svg11.dtd">
<svg version="1.1" id="now" xmlns="http://www.w3.org/2000/svg" xmlns:xlink="http://www.w3.org/1999/xlink" x="0px" y="0px"
	 width="159.859px" height="50.916px" viewBox="0 0 159.859 50.916" enable-background="new 0 0 159.859 50.916"
	 xml:space="preserve">
<g>
	<path fill="#D3D3D3" d="M0,50.916V11.98h2.995V8.985H5.99v2.995h8.985v2.995H2.995V47.92h8.985V23.96h2.995v8.985h2.995v5.99
		h-2.995v5.99h2.995v2.995h-2.995v2.995H0z M5.99,8.985V5.99h2.995v2.995H5.99z M8.985,5.99V2.995h2.995V5.99H8.985z M20.965,5.99
		V2.995H11.98V0h14.975v2.995H23.96V5.99H20.965z M14.975,11.98V8.985h2.995v2.995H14.975z M14.975,17.97v-2.995h2.995v2.995H14.975
		z M17.97,8.985V5.99h2.995v2.995H17.97z M17.97,23.96v-5.99h2.995v5.99H17.97z M17.97,44.925v-5.99h2.995v5.99H17.97z
		 M23.96,50.916V47.92h11.98V14.975h-8.985v23.96H23.96V29.95h-2.995v-5.99h2.995V11.98h2.995V8.985h2.995v2.995h8.985v32.945h2.995
		v2.995h-2.995v2.995H23.96z M20.965,47.92v-2.995h2.995v2.995H20.965z M26.955,5.99V2.995h2.995V5.99H26.955z M29.95,8.985V5.99
		h2.995v2.995H29.95z M32.945,5.99V2.995h2.995V5.99H32.945z M47.92,38.936V5.99h-2.995V2.995H35.94V0h14.975v38.936H47.92z
		 M38.936,11.98V8.985h2.995v2.995H38.936z M41.931,8.985V5.99h2.995v2.995H41.931z M41.931,44.925V41.93h2.995v2.995H41.931z
		 M44.925,41.93v-2.995h2.995v2.995H44.925z"/>
	<path fill="#D3D3D3" d="M54.472,50.916V11.98h2.995V8.985h2.995v2.995h32.945v32.945h2.995v2.995h-2.995v2.995H54.472z
		 M90.412,47.92V14.975H57.467V47.92H90.412z M60.462,8.985V5.99h2.995v2.995H60.462z M63.457,5.99V2.995h2.995V5.99H63.457z
		 M102.393,38.936V5.99h-2.995V2.995H66.452V0h38.936v38.936H102.393z M66.452,38.936V23.96h14.975v14.975H66.452z M78.432,35.94
		v-5.99h-2.995v-2.995h-5.99v5.99h2.995v2.995H78.432z M72.442,32.945V29.95h2.995v2.995H72.442z M93.407,11.98V8.985h2.995v2.995
		H93.407z M96.402,8.985V5.99h2.995v2.995H96.402z M96.402,44.925V41.93h2.995v2.995H96.402z M99.397,41.93v-2.995h2.995v2.995
		H99.397z"/>
	<path fill="#D3D3D3" d="M108.944,50.916V11.98h2.995V8.985h2.995v2.995h8.985v20.965h2.995v2.995h-2.995v2.995h-2.995v-23.96
		h-8.985V47.92h8.985v2.995H108.944z M114.934,8.985V5.99h2.995v2.995H114.934z M117.929,5.99V2.995h2.995V5.99H117.929z
		 M135.899,50.916V47.92h8.985V14.975h-8.985v23.96h-2.995V35.94h-2.995v-2.995h2.995V29.95h-2.995v-2.995h2.995V5.99h-2.995V2.995
		h-8.985V0h14.976v8.985h2.995v2.995h8.985v32.945h2.995v2.995h-2.995v2.995H135.899z M120.924,47.92v-2.995h2.995v2.995H120.924z
		 M123.919,11.98V8.985h2.995v2.995H123.919z M123.919,44.925V41.93h2.995v2.995H123.919z M126.914,8.985V5.99h2.995v2.995H126.914z
		 M126.914,32.945V29.95h2.995v2.995H126.914z M126.914,41.93v-2.995h2.995v2.995H126.914z M129.909,44.925V41.93h2.995v2.995
		H129.909z M132.904,47.92v-2.995h2.995v2.995H132.904z M138.895,8.985V5.99h2.995v2.995H138.895z M141.889,5.99V2.995h2.995V5.99
		H141.889z M156.864,38.936V5.99h-2.995V2.995h-8.985V0h14.975v38.936H156.864z M147.879,11.98V8.985h2.995v2.995H147.879z
		 M150.875,8.985V5.99h2.995v2.995H150.875z M150.875,44.925V41.93h2.995v2.995H150.875z M153.869,41.93v-2.995h2.995v2.995H153.869
		z"/>
</g>
</svg>
