<?xml version="1.0" encoding="utf-8"?>
<!-- Generator: Adobe Illustrator 16.0.0, SVG Export Plug-In . SVG Version: 6.00 Build 0)  -->
<!DOCTYPE svg PUBLIC "-//W3C//DTD SVG 1.1//EN" "http://www.w3.org/Graphics/SVG/1.1/DTD/svg11.dtd">
<svg version="1.1" id="Layer_1" xmlns="http://www.w3.org/2000/svg" xmlns:xlink="http://www.w3.org/1999/xlink" x="0px" y="0px"
	 width="30.656px" height="6.375px" viewBox="0 0 30.656 6.375" enable-background="new 0 0 30.656 6.375" xml:space="preserve">
<g>
	<path fill="#DFDFDF" d="M0,6.375V1.5h0.375V1.125H0.75V1.5h4.125v2.625H5.25V4.5H4.875v0.375H3V5.25H2.625V4.875h-0.75v0.75H2.25V6
		H1.875v0.375H0z M1.5,6V4.5h3V1.875H0.375V6H1.5z M0.75,1.125V0.75h0.375v0.375H0.75z M1.125,0.75V0.375H1.5V0.75H1.125z M6,3.375
		V0.75H5.625V0.375H1.5V0h4.875v3.375H6z M1.5,3.375V3h1.875v0.375H1.5z M2.25,5.625V5.25h0.375v0.375H2.25z M4.875,1.5V1.125H5.25
		V1.5H4.875z M5.25,1.125V0.75h0.375v0.375H5.25z M5.25,4.125V3.75h0.375v0.375H5.25z M5.625,3.75V3.375H6V3.75H5.625z"/>
	<path fill="#DFDFDF" d="M6.82,6.375V1.5h0.375V1.125H7.57V1.5h1.125v2.625H9.07V4.5h2.625v1.125h0.375V6h-0.375v0.375H6.82z
		 M11.32,6V4.875h-3v-3H7.195V6H11.32z M7.57,1.125V0.75h0.375v0.375H7.57z M7.945,0.75V0.375H8.32V0.75H7.945z M12.82,4.875V3.75
		h-0.375V3.375H9.82V0.75H9.445V0.375H8.32V0h1.875v3h3v1.875H12.82z M8.695,1.5V1.125H9.07V1.5H8.695z M9.07,1.125V0.75h0.375
		v0.375H9.07z M9.07,4.125V3.75h0.375v0.375H9.07z M9.445,3.75V3.375H9.82V3.75H9.445z M11.695,4.5V4.125h0.375V4.5H11.695z
		 M12.07,4.125V3.75h0.375v0.375H12.07z M12.07,5.625V5.25h0.375v0.375H12.07z M12.445,5.25V4.875h0.375V5.25H12.445z"/>
	<path fill="#DFDFDF" d="M13.641,6.375V1.5h0.375V1.125h0.375V1.5h4.125v4.125h0.375V6h-0.375v0.375h-1.875V5.25h-0.375V4.875h-0.75
		v0.75h0.375V6h-0.375v0.375H13.641z M18.141,6V1.875h-4.125V6h1.125V4.5h1.875V6H18.141z M14.391,1.125V0.75h0.375v0.375H14.391z
		 M14.766,0.75V0.375h0.375V0.75H14.766z M19.641,4.875V0.75h-0.375V0.375h-4.125V0h4.875v4.875H19.641z M15.141,3.375V3h1.875
		v0.375H15.141z M15.891,5.625V5.25h0.375v0.375H15.891z M18.516,1.5V1.125h0.375V1.5H18.516z M18.891,1.125V0.75h0.375v0.375
		H18.891z M18.891,5.625V5.25h0.375v0.375H18.891z M19.266,5.25V4.875h0.375V5.25H19.266z"/>
	<path fill="#DFDFDF" d="M22.336,3.75V3.375h-0.375v-1.5h-1.125v1.5h-0.375V1.5h0.375V1.125h0.375V1.5h1.125V3h0.375v0.75H22.336z
		 M20.836,3.75V3.375h0.375V3.75H20.836z M21.211,1.125V0.75h0.375v0.375H21.211z M21.211,4.125V3.75h0.375v0.375H21.211z
		 M21.586,0.75V0.375h0.375V0.75H21.586z M21.586,4.5V4.125h0.375V4.5H21.586z M24.961,4.875V3.75h-0.375V3.375h0.375v-1.5h-1.125
		v1.5h-0.375v-0.75h-0.375V2.25h0.375v-1.5h-0.375V0.375h-1.125V0h1.875v0.75h0.375v0.375h-0.375V1.5h1.5v1.125h0.375V3h-0.375
		v1.875H24.961z M21.961,6.375V4.5h0.375V6h1.125V4.5h0.375v1.125h0.375V6h-0.375v0.375H21.961z M22.336,1.5V1.125h0.375V1.5H22.336
		z M22.711,1.125V0.75h0.375v0.375H22.711z M22.711,3V2.625h0.375V3H22.711z M22.711,4.125V3.75h0.375v0.375H22.711z M23.086,3.75
		V3.375h0.375V3.75H23.086z M23.836,4.5V4.125h0.375V4.5H23.836z M24.211,0.75V0.375h0.375V0.75H24.211z M24.211,4.125V3.75h0.375
		v0.375H24.211z M24.211,5.625V5.25h0.375v0.375H24.211z M26.461,1.875V0.75h-0.375V0.375h-1.5V0h2.25v1.875H26.461z M24.586,5.25
		V4.875h0.375V5.25H24.586z M25.336,1.5V1.125h0.375V1.5H25.336z M25.711,1.125V0.75h0.375v0.375H25.711z M25.711,2.625V2.25h0.375
		v0.375H25.711z M26.086,2.25V1.875h0.375V2.25H26.086z"/>
	<path fill="#DFDFDF" d="M27.281,6.375V1.5h0.375V1.125h0.375V1.5h1.125v2.625h0.375V4.5h-0.375v1.125h0.375V6h-0.375v0.375H27.281z
		 M28.781,4.5V1.875h-1.125V4.5H28.781z M28.781,6V4.875h-1.125V6H28.781z M28.031,1.125V0.75h0.375v0.375H28.031z M28.406,0.75
		V0.375h0.375V0.75H28.406z M30.281,4.875V3.75h-0.375V3.375h0.375V0.75h-0.375V0.375h-1.125V0h1.875v4.875H30.281z M29.156,1.5
		V1.125h0.375V1.5H29.156z M29.531,1.125V0.75h0.375v0.375H29.531z M29.531,4.125V3.75h0.375v0.375H29.531z M29.531,5.625V5.25
		h0.375v0.375H29.531z M29.906,5.25V4.875h0.375V5.25H29.906z"/>
</g>
</svg>
