<?xml version="1.0" encoding="utf-8"?>
<!-- Generator: Adobe Illustrator 16.0.0, SVG Export Plug-In . SVG Version: 6.00 Build 0)  -->
<!DOCTYPE svg PUBLIC "-//W3C//DTD SVG 1.1//EN" "http://www.w3.org/Graphics/SVG/1.1/DTD/svg11.dtd">
<svg version="1.1" id="Layer_1" xmlns="http://www.w3.org/2000/svg" xmlns:xlink="http://www.w3.org/1999/xlink" x="0px" y="0px"
	 width="183.938px" height="38.25px" viewBox="0 0 183.938 38.25" enable-background="new 0 0 183.938 38.25" xml:space="preserve">
<g>
	<path fill="#25DFDF" d="M0,38.25V9h2.25V6.75H4.5V9h24.75v15.75h2.25V27h-2.25v2.25H18v2.25h-2.25v-2.25h-4.5v4.5h2.25V36h-2.25
		v2.25H0z M9,36v-9h18V11.25H2.25V36H9z M4.5,6.75V4.5h2.25v2.25H4.5z M6.75,4.5V2.25H9V4.5H6.75z M36,20.25V4.5h-2.25V2.25H9V0
		h29.25v20.25H36z M9,20.25V18h11.25v2.25H9z M13.5,33.75V31.5h2.25v2.25H13.5z M29.25,9V6.75h2.25V9H29.25z M31.5,6.75V4.5h2.25
		v2.25H31.5z M31.5,24.75V22.5h2.25v2.25H31.5z M33.75,22.5v-2.25H36v2.25H33.75z"/>
	<path fill="#25DFDF" d="M40.922,38.25V9h2.25V6.75h2.25V9h6.75v15.75h2.25V27h15.75v6.75h2.25V36h-2.25v2.25H40.922z M67.922,36
		v-6.75h-18v-18h-6.75V36H67.922z M45.422,6.75V4.5h2.25v2.25H45.422z M47.672,4.5V2.25h2.25V4.5H47.672z M76.922,29.25V22.5h-2.25
		v-2.25h-15.75V4.5h-2.25V2.25h-6.75V0h11.25v18h18v11.25H76.922z M52.172,9V6.75h2.25V9H52.172z M54.422,6.75V4.5h2.25v2.25H54.422
		z M54.422,24.75V22.5h2.25v2.25H54.422z M56.672,22.5v-2.25h2.25v2.25H56.672z M70.172,27v-2.25h2.25V27H70.172z M72.422,24.75
		V22.5h2.25v2.25H72.422z M72.422,33.75V31.5h2.25v2.25H72.422z M74.672,31.5v-2.25h2.25v2.25H74.672z"/>
	<path fill="#25DFDF" d="M81.844,38.25V9h2.25V6.75h2.25V9h24.75v24.75h2.25V36h-2.25v2.25h-11.25V31.5h-2.25v-2.25h-4.5v4.5h2.25
		V36h-2.25v2.25H81.844z M108.844,36V11.25h-24.75V36h6.75v-9h11.25v9H108.844z M86.344,6.75V4.5h2.25v2.25H86.344z M88.594,4.5
		V2.25h2.25V4.5H88.594z M117.844,29.25V4.5h-2.25V2.25h-24.75V0h29.25v29.25H117.844z M90.844,20.25V18h11.25v2.25H90.844z
		 M95.344,33.75V31.5h2.25v2.25H95.344z M111.094,9V6.75h2.25V9H111.094z M113.344,6.75V4.5h2.25v2.25H113.344z M113.344,33.75V31.5
		h2.25v2.25H113.344z M115.594,31.5v-2.25h2.25v2.25H115.594z"/>
	<path fill="#25DFDF" d="M134.016,22.5v-2.25h-2.25v-9h-6.75v9h-2.25V9h2.25V6.75h2.25V9h6.75v9h2.25v4.5H134.016z M125.016,22.5
		v-2.25h2.25v2.25H125.016z M127.266,6.75V4.5h2.25v2.25H127.266z M127.266,24.75V22.5h2.25v2.25H127.266z M129.516,4.5V2.25h2.25
		V4.5H129.516z M129.516,27v-2.25h2.25V27H129.516z M149.766,29.25V22.5h-2.25v-2.25h2.25v-9h-6.75v9h-2.25v-4.5h-2.25V13.5h2.25v-9
		h-2.25V2.25h-6.75V0h11.25v4.5h2.25v2.25h-2.25V9h9v6.75h2.25V18h-2.25v11.25H149.766z M131.766,38.25V27h2.25v9h6.75v-9h2.25v6.75
		h2.25V36h-2.25v2.25H131.766z M134.016,9V6.75h2.25V9H134.016z M136.266,6.75V4.5h2.25v2.25H136.266z M136.266,18v-2.25h2.25V18
		H136.266z M136.266,24.75V22.5h2.25v2.25H136.266z M138.516,22.5v-2.25h2.25v2.25H138.516z M143.016,27v-2.25h2.25V27H143.016z
		 M145.266,4.5V2.25h2.25V4.5H145.266z M145.266,24.75V22.5h2.25v2.25H145.266z M145.266,33.75V31.5h2.25v2.25H145.266z
		 M158.766,11.25V4.5h-2.25V2.25h-9V0h13.5v11.25H158.766z M147.516,31.5v-2.25h2.25v2.25H147.516z M152.016,9V6.75h2.25V9H152.016z
		 M154.266,6.75V4.5h2.25v2.25H154.266z M154.266,15.75V13.5h2.25v2.25H154.266z M156.516,13.5v-2.25h2.25v2.25H156.516z"/>
	<path fill="#25DFDF" d="M163.688,38.25V9h2.25V6.75h2.25V9h6.75v15.75h2.25V27h-2.25v6.75h2.25V36h-2.25v2.25H163.688z M172.688,27
		V11.25h-6.75V27H172.688z M172.688,36v-6.75h-6.75V36H172.688z M168.188,6.75V4.5h2.25v2.25H168.188z M170.438,4.5V2.25h2.25V4.5
		H170.438z M181.688,29.25V22.5h-2.25v-2.25h2.25V4.5h-2.25V2.25h-6.75V0h11.25v29.25H181.688z M174.938,9V6.75h2.25V9H174.938z
		 M177.188,6.75V4.5h2.25v2.25H177.188z M177.188,24.75V22.5h2.25v2.25H177.188z M177.188,33.75V31.5h2.25v2.25H177.188z
		 M179.438,31.5v-2.25h2.25v2.25H179.438z"/>
</g>
</svg>
