<?xml version="1.0" encoding="utf-8"?>
<!-- Generator: Adobe Illustrator 16.0.0, SVG Export Plug-In . SVG Version: 6.00 Build 0)  -->
<!DOCTYPE svg PUBLIC "-//W3C//DTD SVG 1.1//EN" "http://www.w3.org/Graphics/SVG/1.1/DTD/svg11.dtd">
<svg version="1.1" id="text" xmlns="http://www.w3.org/2000/svg" xmlns:xlink="http://www.w3.org/1999/xlink" x="0px" y="0px"
	 width="323.701px" height="31.866px" viewBox="0 0 323.701 31.866" enable-background="new 0 0 323.701 31.866"
	 xml:space="preserve">
<g>
	<rect x="26.243" y="26.243" fill="#25DFDF" width="1.875" height="1.874"/>
	<rect x="24.368" y="28.117" fill="#25DFDF" width="1.875" height="1.875"/>
	<rect x="11.247" y="26.243" fill="#25DFDF" width="1.875" height="1.874"/>
	<rect x="13.122" y="28.117" fill="#25DFDF" width="1.875" height="1.875"/>
	<polygon fill="#25DFDF" points="9.373,26.243 11.247,26.243 11.247,24.368 9.373,24.368 9.373,22.494 7.498,22.494 7.498,29.992 
		1.875,29.992 1.875,9.373 22.494,9.373 22.494,22.494 14.996,22.494 14.996,24.368 16.87,24.368 16.87,26.243 18.745,26.243 
		18.745,24.368 24.368,24.368 24.368,22.494 26.243,22.494 26.243,20.619 24.368,20.619 24.368,7.498 3.749,7.498 3.749,5.624 
		1.875,5.624 1.875,7.498 0,7.498 0,31.866 9.373,31.866 9.373,29.992 11.247,29.992 11.247,28.117 9.373,28.117 	"/>
	<polygon fill="#25DFDF" points="22.494,28.117 20.619,28.117 20.619,29.992 14.996,29.992 14.996,31.866 24.368,31.866 
		24.368,29.992 22.494,29.992 	"/>
	<rect x="7.498" y="14.996" fill="#25DFDF" width="9.372" height="1.874"/>
	<polygon fill="#25DFDF" points="7.498,1.875 28.117,1.875 28.117,3.749 29.992,3.749 29.992,16.87 31.866,16.87 31.866,0 7.498,0 	
		"/>
	<rect x="28.117" y="16.87" fill="#25DFDF" width="1.875" height="1.875"/>
	<rect x="28.117" y="24.368" fill="#25DFDF" width="1.875" height="1.875"/>
	<rect x="26.243" y="3.749" fill="#25DFDF" width="1.875" height="1.875"/>
	<rect x="18.745" y="26.243" fill="#25DFDF" width="1.875" height="1.874"/>
	<rect x="29.992" y="22.494" fill="#25DFDF" width="1.875" height="1.874"/>
	<rect x="24.368" y="5.624" fill="#25DFDF" width="1.875" height="1.875"/>
	<rect x="3.749" y="3.749" fill="#25DFDF" width="1.875" height="1.875"/>
	<rect x="28.117" y="20.619" fill="#25DFDF" width="1.875" height="1.875"/>
	<rect x="5.624" y="1.875" fill="#25DFDF" width="1.875" height="1.875"/>
	<rect x="26.243" y="18.745" fill="#25DFDF" width="1.875" height="1.874"/>
	<path fill="#25DFDF" d="M58.46,7.498H37.841V5.624h-1.875v1.875h-1.875v24.368h9.373v-1.874h1.875v-1.875h-1.875v-3.749h3.749
		v1.875h1.875v5.623h9.372v-1.874h1.875v-1.875H58.46V7.498z M56.586,29.992h-5.623v-7.498H41.59v7.498h-5.624V9.373h20.619V29.992z
		"/>
	<rect x="37.841" y="3.749" fill="#25DFDF" width="1.875" height="1.875"/>
	<polygon fill="#25DFDF" points="41.59,1.875 62.209,1.875 62.209,3.749 64.084,3.749 64.084,24.368 65.958,24.368 65.958,0 
		41.59,0 	"/>
	<rect x="58.46" y="5.624" fill="#25DFDF" width="1.875" height="1.875"/>
	<rect x="41.59" y="14.996" fill="#25DFDF" width="9.373" height="1.874"/>
	<rect x="62.209" y="24.368" fill="#25DFDF" width="1.875" height="1.875"/>
	<rect x="39.716" y="1.875" fill="#25DFDF" width="1.875" height="1.875"/>
	<rect x="60.335" y="26.243" fill="#25DFDF" width="1.875" height="1.874"/>
	<rect x="45.339" y="26.243" fill="#25DFDF" width="1.875" height="1.874"/>
	<rect x="60.335" y="3.749" fill="#25DFDF" width="1.875" height="1.875"/>
	<rect x="77.557" y="9.373" fill="#25DFDF" width="1.875" height="1.875"/>
	<rect x="86.93" y="3.749" fill="#25DFDF" width="1.874" height="1.875"/>
	<rect x="79.432" y="11.247" fill="#25DFDF" width="1.875" height="3.749"/>
	<rect x="88.804" y="1.875" fill="#25DFDF" width="1.875" height="1.875"/>
	<polygon fill="#25DFDF" points="77.557,24.368 79.432,24.368 79.432,20.619 77.557,20.619 77.557,14.996 75.683,14.996 
		75.683,29.992 70.059,29.992 70.059,9.373 77.557,9.373 77.557,7.498 71.934,7.498 71.934,5.624 70.059,5.624 70.059,7.498 
		68.185,7.498 68.185,31.866 77.557,31.866 77.557,29.992 79.432,29.992 79.432,28.117 77.557,28.117 	"/>
	<rect x="77.557" y="5.624" fill="#25DFDF" width="1.875" height="1.875"/>
	<rect x="92.553" y="5.624" fill="#25DFDF" width="1.875" height="1.875"/>
	<rect x="94.427" y="3.749" fill="#25DFDF" width="1.875" height="1.875"/>
	<rect x="79.432" y="3.749" fill="#25DFDF" width="1.875" height="1.875"/>
	<rect x="85.055" y="1.875" fill="#25DFDF" width="1.875" height="1.875"/>
	<rect x="79.432" y="24.368" fill="#25DFDF" width="1.875" height="3.749"/>
	<rect x="73.808" y="1.875" fill="#25DFDF" width="1.875" height="1.875"/>
	<rect x="81.306" y="28.117" fill="#25DFDF" width="1.875" height="1.875"/>
	<rect x="71.934" y="3.749" fill="#25DFDF" width="1.875" height="1.875"/>
	<polygon fill="#25DFDF" points="92.553,7.498 86.93,7.498 86.93,5.624 85.055,5.624 85.055,7.498 83.181,7.498 83.181,14.996 
		81.306,14.996 81.306,18.745 83.181,18.745 83.181,24.368 85.055,24.368 85.055,9.373 90.678,9.373 90.678,29.992 83.181,29.992 
		83.181,31.866 92.553,31.866 92.553,29.992 94.427,29.992 94.427,28.117 92.553,28.117 	"/>
	<rect x="96.302" y="24.368" fill="#25DFDF" width="1.875" height="1.875"/>
	<polygon fill="#25DFDF" points="81.306,3.749 83.181,3.749 83.181,1.875 85.055,1.875 85.055,0 75.683,0 75.683,1.875 
		81.306,1.875 	"/>
	<rect x="94.427" y="26.243" fill="#25DFDF" width="1.875" height="1.874"/>
	<polygon fill="#25DFDF" points="90.678,1.875 96.302,1.875 96.302,3.749 98.176,3.749 98.176,24.368 100.051,24.368 100.051,0 
		90.678,0 	"/>
	<rect x="115.398" y="16.87" fill="#25DFDF" width="1.875" height="1.875"/>
	<polygon fill="#25DFDF" points="113.524,20.619 111.649,20.619 111.649,16.87 115.398,16.87 115.398,14.996 109.775,14.996 
		109.775,24.368 115.398,24.368 115.398,22.494 113.524,22.494 	"/>
	<rect x="115.398" y="20.619" fill="#25DFDF" width="1.875" height="1.875"/>
	<rect x="113.524" y="18.745" fill="#25DFDF" width="1.875" height="1.874"/>
	<rect x="122.896" y="24.368" fill="#25DFDF" width="1.874" height="1.875"/>
	<polygon fill="#25DFDF" points="104.151,9.373 119.147,9.373 119.147,7.498 106.026,7.498 106.026,5.624 104.151,5.624 
		104.151,7.498 102.277,7.498 102.277,31.866 119.147,31.866 119.147,29.992 104.151,29.992 	"/>
	<rect x="128.52" y="3.749" fill="#25DFDF" width="1.875" height="1.875"/>
	<rect x="130.394" y="5.624" fill="#25DFDF" width="1.875" height="1.875"/>
	<rect x="121.022" y="26.243" fill="#25DFDF" width="1.875" height="1.874"/>
	<rect x="128.52" y="11.247" fill="#25DFDF" width="1.875" height="1.875"/>
	<rect x="126.645" y="1.875" fill="#25DFDF" width="1.875" height="1.875"/>
	<polygon fill="#25DFDF" points="122.896,3.749 124.771,3.749 124.771,1.875 126.645,1.875 126.645,0 109.775,0 109.775,1.875 
		122.896,1.875 	"/>
	<rect x="106.026" y="3.749" fill="#25DFDF" width="1.875" height="1.875"/>
	<rect x="126.645" y="13.122" fill="#25DFDF" width="1.875" height="1.875"/>
	<rect x="107.9" y="1.875" fill="#25DFDF" width="1.875" height="1.875"/>
	<rect x="119.147" y="28.117" fill="#25DFDF" width="1.875" height="1.875"/>
	<rect x="119.147" y="9.373" fill="#25DFDF" width="1.875" height="1.875"/>
	<rect x="121.022" y="3.749" fill="#25DFDF" width="1.875" height="1.875"/>
	<rect x="119.147" y="5.624" fill="#25DFDF" width="1.875" height="1.875"/>
	<rect x="121.022" y="11.247" fill="#25DFDF" width="1.875" height="1.875"/>
	<rect x="117.273" y="18.745" fill="#25DFDF" width="1.875" height="1.874"/>
	<rect x="122.896" y="13.122" fill="#25DFDF" width="1.874" height="1.875"/>
	<rect x="128.52" y="18.745" fill="#25DFDF" width="1.875" height="1.874"/>
	<polygon fill="#25DFDF" points="126.645,14.996 124.771,14.996 124.771,24.368 126.645,24.368 126.645,22.494 128.52,22.494 
		128.52,20.619 126.645,20.619 	"/>
	<polygon fill="#25DFDF" points="132.269,9.373 130.394,9.373 130.394,11.247 132.269,11.247 132.269,16.87 134.143,16.87 
		134.143,7.498 132.269,7.498 	"/>
	<rect x="130.394" y="16.87" fill="#25DFDF" width="1.875" height="1.875"/>
	<polygon fill="#25DFDF" points="143.867,1.875 164.486,1.875 164.486,3.749 166.361,3.749 166.361,24.368 168.235,24.368 
		168.235,0 143.867,0 	"/>
	<rect x="164.486" y="24.368" fill="#25DFDF" width="1.875" height="1.875"/>
	<rect x="162.612" y="26.243" fill="#25DFDF" width="1.875" height="1.874"/>
	<rect x="162.612" y="3.749" fill="#25DFDF" width="1.875" height="1.875"/>
	<rect x="160.737" y="5.624" fill="#25DFDF" width="1.875" height="1.875"/>
	<rect x="141.993" y="1.875" fill="#25DFDF" width="1.875" height="1.875"/>
	<rect x="147.616" y="18.745" fill="#25DFDF" width="1.875" height="1.874"/>
	<rect x="140.118" y="3.749" fill="#25DFDF" width="1.875" height="1.875"/>
	<path fill="#25DFDF" d="M153.24,14.996h-9.373v9.372h9.373V14.996z M151.365,22.494h-3.749v-1.875h-1.875V16.87h3.749v1.875h1.875
		V22.494z"/>
	<path fill="#25DFDF" d="M160.737,7.498h-20.619V5.624h-1.875v1.875h-1.875v24.368h24.368v-1.874h1.875v-1.875h-1.875V7.498z
		 M158.863,29.992h-20.62V9.373h20.62V29.992z"/>
	<rect x="187.332" y="3.749" fill="#25DFDF" width="1.874" height="1.875"/>
	<polygon fill="#25DFDF" points="179.834,18.745 181.708,18.745 181.708,16.87 179.834,16.87 179.834,14.996 177.96,14.996 
		177.96,29.992 172.336,29.992 172.336,9.373 177.96,9.373 177.96,7.498 174.211,7.498 174.211,5.624 172.336,5.624 172.336,7.498 
		170.461,7.498 170.461,31.866 179.834,31.866 179.834,29.992 181.708,29.992 181.708,28.117 179.834,28.117 	"/>
	<rect x="185.457" y="9.373" fill="#25DFDF" width="1.875" height="1.875"/>
	<rect x="179.834" y="11.247" fill="#25DFDF" width="1.874" height="1.875"/>
	<rect x="196.704" y="26.243" fill="#25DFDF" width="1.875" height="1.874"/>
	<rect x="185.457" y="1.875" fill="#25DFDF" width="1.875" height="1.875"/>
	<polygon fill="#25DFDF" points="194.83,1.875 198.579,1.875 198.579,3.749 200.453,3.749 200.453,24.368 202.328,24.368 202.328,0 
		194.83,0 	"/>
	<rect x="174.211" y="3.749" fill="#25DFDF" width="1.874" height="1.875"/>
	<rect x="181.708" y="26.243" fill="#25DFDF" width="1.875" height="1.874"/>
	<polygon fill="#25DFDF" points="181.708,3.749 183.583,3.749 183.583,1.875 185.457,1.875 185.457,0 177.96,0 177.96,1.875 
		181.708,1.875 	"/>
	<polygon fill="#25DFDF" points="194.83,7.498 191.081,7.498 191.081,5.624 189.206,5.624 189.206,7.498 187.332,7.498 
		187.332,9.373 192.955,9.373 192.955,29.992 187.332,29.992 187.332,14.996 185.457,14.996 185.457,16.87 183.583,16.87 
		183.583,18.745 185.457,18.745 185.457,24.368 183.583,24.368 183.583,26.243 185.457,26.243 185.457,31.866 194.83,31.866 
		194.83,29.992 196.704,29.992 196.704,28.117 194.83,28.117 	"/>
	<rect x="176.085" y="1.875" fill="#25DFDF" width="1.875" height="1.875"/>
	<rect x="177.96" y="9.373" fill="#25DFDF" width="1.874" height="1.875"/>
	<rect x="192.955" y="1.875" fill="#25DFDF" width="1.875" height="1.875"/>
	<rect x="191.081" y="3.749" fill="#25DFDF" width="1.874" height="1.875"/>
	<rect x="181.708" y="13.122" fill="#25DFDF" width="1.875" height="1.875"/>
	<rect x="194.83" y="5.624" fill="#25DFDF" width="1.874" height="1.875"/>
	<rect x="196.704" y="3.749" fill="#25DFDF" width="1.875" height="1.875"/>
	<rect x="198.579" y="24.368" fill="#25DFDF" width="1.874" height="1.875"/>
	<rect x="183.583" y="11.247" fill="#25DFDF" width="1.874" height="1.875"/>
	<rect x="177.96" y="5.624" fill="#25DFDF" width="1.874" height="1.875"/>
	<rect x="181.708" y="18.745" fill="#25DFDF" width="1.875" height="1.874"/>
	<rect x="179.834" y="3.749" fill="#25DFDF" width="1.874" height="1.875"/>
	<rect x="230.797" y="18.745" fill="#25DFDF" width="1.874" height="1.874"/>
	<path fill="#25DFDF" d="M228.922,7.498h-20.619V5.624h-1.874v1.875h-1.875v9.372h5.624v1.875h1.874v3.749h-3.749v-1.875h-1.874
		v1.875h-1.875v9.372h24.368v-1.874h1.875v-1.875h-1.875v-5.623h-5.623v-1.875h-1.875V16.87h3.749v1.875h1.875V16.87h5.623v1.875
		h1.875v5.623h1.874v-9.372h-5.623v-1.875h-1.875V7.498z M227.048,14.996h-7.498v9.372h7.498v5.624h-20.619v-5.624h7.498v-9.372
		h-7.498V9.373h20.619V14.996z"/>
	<rect x="230.797" y="26.243" fill="#25DFDF" width="1.874" height="1.874"/>
	<rect x="230.797" y="11.247" fill="#25DFDF" width="1.874" height="1.875"/>
	<rect x="232.671" y="24.368" fill="#25DFDF" width="1.875" height="1.875"/>
	<rect x="228.922" y="5.624" fill="#25DFDF" width="1.875" height="1.875"/>
	<rect x="232.671" y="9.373" fill="#25DFDF" width="1.875" height="1.875"/>
	<polygon fill="#25DFDF" points="212.052,1.875 232.671,1.875 232.671,3.749 234.546,3.749 234.546,9.373 236.42,9.373 236.42,0 
		212.052,0 	"/>
	<rect x="230.797" y="3.749" fill="#25DFDF" width="1.874" height="1.875"/>
	<rect x="210.178" y="1.875" fill="#25DFDF" width="1.874" height="1.875"/>
	<rect x="228.922" y="20.619" fill="#25DFDF" width="1.875" height="1.875"/>
	<rect x="208.303" y="3.749" fill="#25DFDF" width="1.875" height="1.875"/>
	<rect x="223.299" y="18.745" fill="#25DFDF" width="1.874" height="1.874"/>
	<rect x="208.303" y="18.745" fill="#25DFDF" width="1.875" height="1.874"/>
	<rect x="266.764" y="24.368" fill="#25DFDF" width="1.874" height="1.875"/>
	<rect x="264.889" y="26.243" fill="#25DFDF" width="1.875" height="1.874"/>
	<polygon fill="#25DFDF" points="246.145,1.875 266.764,1.875 266.764,3.749 268.638,3.749 268.638,9.373 266.764,9.373 
		266.764,11.247 268.638,11.247 268.638,24.368 270.513,24.368 270.513,0 246.145,0 	"/>
	<path fill="#25DFDF" d="M263.015,14.996h1.874v-1.875h-1.874V7.498h-20.619V5.624h-1.875v1.875h-1.874v24.368h24.368v-1.874h1.874
		v-1.875h-1.874V14.996z M261.14,14.996h-14.995v1.874h14.995v13.122h-20.619v-5.624h14.996v-1.874h-14.996V9.373h20.619V14.996z"/>
	<rect x="263.015" y="5.624" fill="#25DFDF" width="1.874" height="1.875"/>
	<rect x="264.889" y="3.749" fill="#25DFDF" width="1.875" height="1.875"/>
	<rect x="242.396" y="3.749" fill="#25DFDF" width="1.874" height="1.875"/>
	<rect x="264.889" y="11.247" fill="#25DFDF" width="1.875" height="1.875"/>
	<rect x="244.27" y="1.875" fill="#25DFDF" width="1.875" height="1.875"/>
	<path fill="#25DFDF" d="M297.106,7.498h-20.619V5.624h-1.874v1.875h-1.875v24.368h24.368v-1.874h1.875v-1.875h-1.875v-5.623h-5.623
		v-1.875h-1.875V16.87h3.749v1.875h1.875V16.87h5.623v1.875h1.875v5.623h1.874v-9.372h-5.623v-1.875h-1.875V7.498z M295.232,14.996
		h-14.996v1.874h7.498v5.624h-7.498v1.874h14.996v5.624h-20.619V9.373h20.619V14.996z"/>
	<rect x="298.981" y="26.243" fill="#25DFDF" width="1.874" height="1.874"/>
	<rect x="297.106" y="20.619" fill="#25DFDF" width="1.875" height="1.875"/>
	<polygon fill="#25DFDF" points="280.236,1.875 300.855,1.875 300.855,3.749 302.73,3.749 302.73,9.373 304.604,9.373 304.604,0 
		280.236,0 	"/>
	<rect x="300.855" y="9.373" fill="#25DFDF" width="1.875" height="1.875"/>
	<rect x="298.981" y="11.247" fill="#25DFDF" width="1.874" height="1.875"/>
	<rect x="300.855" y="24.368" fill="#25DFDF" width="1.875" height="1.875"/>
	<rect x="298.981" y="3.749" fill="#25DFDF" width="1.874" height="1.875"/>
	<rect x="297.106" y="5.624" fill="#25DFDF" width="1.875" height="1.875"/>
	<rect x="291.483" y="18.745" fill="#25DFDF" width="1.874" height="1.874"/>
	<rect x="278.362" y="1.875" fill="#25DFDF" width="1.874" height="1.875"/>
	<rect x="298.981" y="18.745" fill="#25DFDF" width="1.874" height="1.874"/>
	<rect x="276.487" y="3.749" fill="#25DFDF" width="1.875" height="1.875"/>
	<rect x="318.078" y="26.243" fill="#25DFDF" width="1.874" height="1.874"/>
	<polygon fill="#25DFDF" points="314.329,0 314.329,1.875 319.952,1.875 319.952,3.749 321.827,3.749 321.827,16.87 319.952,16.87 
		319.952,18.745 321.827,18.745 321.827,24.368 323.701,24.368 323.701,0 	"/>
	<rect x="319.952" y="24.368" fill="#25DFDF" width="1.875" height="1.875"/>
	<path fill="#25DFDF" d="M316.203,22.494h1.875v-1.875h-1.875V7.498h-5.623V5.624h-1.875v1.875h-1.874v24.368h9.372v-1.874h1.875
		v-1.875h-1.875V22.494z M314.329,29.992h-5.624v-5.624h5.624V29.992z M314.329,22.494h-5.624V9.373h5.624V22.494z"/>
	<rect x="318.078" y="3.749" fill="#25DFDF" width="1.874" height="1.875"/>
	<rect x="318.078" y="18.745" fill="#25DFDF" width="1.874" height="1.874"/>
	<rect x="316.203" y="5.624" fill="#25DFDF" width="1.875" height="1.875"/>
	<rect x="312.454" y="1.875" fill="#25DFDF" width="1.875" height="1.875"/>
	<rect x="310.58" y="3.749" fill="#25DFDF" width="1.874" height="1.875"/>
</g>
</svg>
