<?xml version="1.0" encoding="utf-8"?>
<!-- Generator: Adobe Illustrator 16.0.0, SVG Export Plug-In . SVG Version: 6.00 Build 0)  -->
<!DOCTYPE svg PUBLIC "-//W3C//DTD SVG 1.1//EN" "http://www.w3.org/Graphics/SVG/1.1/DTD/svg11.dtd">
<svg version="1.1" id="Layer_2" xmlns="http://www.w3.org/2000/svg" xmlns:xlink="http://www.w3.org/1999/xlink" x="0px" y="0px"
	 width="338.789px" height="31.875px" viewBox="0 0 338.789 31.875" enable-background="new 0 0 338.789 31.875"
	 xml:space="preserve">
<g>
	<path fill="#25DFDF" d="M0,29.875V9.597h1.56v-1.56h1.56v1.56h17.158v10.918h1.56v1.561h-1.56v1.56h-4.68v1.56h-1.56v-1.56h-1.56
		v-1.56h6.239V11.157H1.56v17.158h4.68v-6.239h1.56v1.56h1.56v1.56h-1.56v1.56h1.56v1.561h-1.56v1.56H0z M3.12,8.038v-1.56h1.56
		v1.56H3.12z M4.68,6.478v-1.56h1.56v1.56H4.68z M24.957,17.396V6.478h-1.56v-1.56H6.239v-1.56h20.278v14.039H24.957z M6.239,17.396
		v-1.56h7.799v1.56H6.239z M9.359,26.755v-1.56h1.56v1.56H9.359z M10.919,28.315v-1.561h1.56v1.561H10.919z M12.479,29.875v-1.56
		h4.68v-1.561h1.56v1.561h1.56v1.56H12.479z M15.598,26.755v-1.56h1.56v1.56H15.598z M20.278,9.597v-1.56h1.56v1.56H20.278z
		 M20.278,28.315v-1.561h1.56v1.561H20.278z M21.837,8.038v-1.56h1.56v1.56H21.837z M21.837,20.516v-1.56h1.56v1.56H21.837z
		 M21.837,26.755v-1.56h1.56v1.56H21.837z M23.397,18.956v-1.56h1.56v1.56H23.397z M23.397,22.076v-1.561h1.56v1.561H23.397z
		 M23.397,25.195v-1.56h1.56v1.56H23.397z M24.957,23.636v-1.56h1.56v1.56H24.957z"/>
	<path fill="#25DFDF" d="M28.369,29.875V9.597h1.56v-1.56h1.56v1.56h17.158v4.68h1.56v1.56h4.68v7.799h-1.56v-4.68h-1.56v-1.56
		h-4.68v1.56h-1.56v-1.56h-3.12v3.119h1.56v1.561h4.68v4.679h1.56v1.561h-1.56v1.56H28.369z M47.087,28.315v-4.68H34.608v-1.56
		h6.239v-4.68h-6.239v-1.56h12.479v-4.68H29.929v17.158H47.087z M31.489,8.038v-1.56h1.56v1.56H31.489z M33.049,6.478v-1.56h1.56
		v1.56H33.049z M53.326,11.157v-4.68h-1.56v-1.56H34.608v-1.56h20.278v7.799H53.326z M43.967,20.516v-1.56h1.56v1.56H43.967z
		 M48.647,9.597v-1.56h1.56v1.56H48.647z M48.647,22.076v-1.561h1.56v1.561H48.647z M50.207,8.038v-1.56h1.56v1.56H50.207z
		 M50.207,14.277v-1.56h1.56v1.56H50.207z M50.207,20.516v-1.56h1.56v1.56H50.207z M50.207,26.755v-1.56h1.56v1.56H50.207z
		 M51.767,12.717v-1.56h1.56v1.56H51.767z M51.767,25.195v-1.56h1.56v1.56H51.767z"/>
	<path fill="#25DFDF" d="M56.738,29.875V9.597h1.56v-1.56h1.56v1.56h10.919v1.56H58.298v17.158h12.479v1.56H56.738z M59.858,8.038
		v-1.56h1.56v1.56H59.858z M61.418,6.478v-1.56h1.56v1.56H61.418z M73.896,6.478v-1.56H62.978v-1.56h14.039v1.56h-1.56v1.56H73.896z
		 M62.978,23.636v-7.799h4.68v1.56h-3.12v3.119h1.56v1.561h1.56v1.56H62.978z M66.097,20.516v-1.56h1.56v1.56H66.097z
		 M67.657,18.956v-1.56h1.56v1.56H67.657z M67.657,22.076v-1.561h1.56v1.561H67.657z M69.217,20.516v-1.56h1.56v1.56H69.217z
		 M70.777,9.597v-1.56h1.56v1.56H70.777z M70.777,12.717v-1.56h1.56v1.56H70.777z M70.777,28.315v-1.561h1.56v1.561H70.777z
		 M72.336,8.038v-1.56h1.56v1.56H72.336z M72.336,14.277v-1.56h1.56v1.56H72.336z M72.336,26.755v-1.56h1.56v1.56H72.336z
		 M73.896,15.837v-1.56h1.56v1.56H73.896z M73.896,25.195v-1.56h1.56v1.56H73.896z M75.456,23.636v-7.799h1.56v4.679h1.56v1.561
		h-1.56v1.56H75.456z M77.016,6.478v-1.56h1.56v1.56H77.016z M77.016,15.837v-1.56h1.56v1.56H77.016z M78.576,8.038v-1.56h1.56v1.56
		H78.576z M78.576,14.277v-1.56h1.56v1.56H78.576z M78.576,20.516v-1.56h1.56v1.56H78.576z M80.136,9.597v-1.56h1.56v1.56H80.136z
		 M81.695,17.396v-4.68h-1.56v-1.56h1.56v-1.56h1.56v7.799H81.695z M80.136,18.956v-1.56h1.56v1.56H80.136z"/>
	<path fill="#25DFDF" d="M85.107,29.875V9.597h1.56v-1.56h1.56v1.56h17.158v4.68h1.56v1.56h4.68v7.799h-1.56v-4.68h-1.56v-1.56
		h-4.68v1.56h-1.56v-1.56h-3.12v3.119h1.56v1.561h4.68v4.679h1.56v1.561h-1.56v1.56H85.107z M103.825,28.315v-4.68H91.347v-1.56
		h6.239v-4.68h-6.239v-1.56h12.479v-4.68H86.667v17.158H103.825z M88.227,8.038v-1.56h1.56v1.56H88.227z M89.787,6.478v-1.56h1.56
		v1.56H89.787z M110.064,11.157v-4.68h-1.56v-1.56H91.347v-1.56h20.278v7.799H110.064z M100.706,20.516v-1.56h1.56v1.56H100.706z
		 M105.385,9.597v-1.56h1.56v1.56H105.385z M105.385,22.076v-1.561h1.56v1.561H105.385z M106.945,8.038v-1.56h1.56v1.56H106.945z
		 M106.945,14.277v-1.56h1.56v1.56H106.945z M106.945,20.516v-1.56h1.56v1.56H106.945z M106.945,26.755v-1.56h1.56v1.56H106.945z
		 M108.505,12.717v-1.56h1.56v1.56H108.505z M108.505,25.195v-1.56h1.56v1.56H108.505z"/>
	<path fill="#25DFDF" d="M113.477,29.875V9.597h1.56v-1.56h1.56v1.56h17.158v4.68h1.56v1.56h4.679v7.799h-1.56v-4.68h-1.56v-1.56
		h-4.679v1.56h-1.56v-1.56h-3.12v3.119h1.56v1.561h4.679v4.679h1.56v1.561h-1.56v1.56H113.477z M132.195,28.315v-4.68h-12.479v-1.56
		h6.24v-4.68h-6.24v-1.56h12.479v-4.68h-17.158v17.158H132.195z M116.597,8.038v-1.56h1.56v1.56H116.597z M118.156,6.478v-1.56h1.56
		v1.56H118.156z M138.434,11.157v-4.68h-1.56v-1.56h-17.158v-1.56h20.278v7.799H138.434z M129.075,20.516v-1.56h1.56v1.56H129.075z
		 M133.754,9.597v-1.56h1.56v1.56H133.754z M133.754,22.076v-1.561h1.56v1.561H133.754z M135.314,8.038v-1.56h1.56v1.56H135.314z
		 M135.314,14.277v-1.56h1.56v1.56H135.314z M135.314,20.516v-1.56h1.56v1.56H135.314z M135.314,26.755v-1.56h1.56v1.56H135.314z
		 M136.874,12.717v-1.56h1.56v1.56H136.874z M136.874,25.195v-1.56h1.56v1.56H136.874z"/>
	<path fill="#25DFDF" d="M141.846,29.875V9.597h1.56v-1.56h1.56v1.56h3.12v1.56h-4.68v17.158h4.68V15.837h1.56v1.56h1.56v1.56h-1.56
		v7.799h1.56v1.561h-1.56v1.56H141.846z M144.966,8.038v-1.56h1.56v1.56H144.966z M146.525,6.478v-1.56h1.56v1.56H146.525z
		 M151.205,6.478v-1.56h-3.12v-1.56h6.239v1.56h-1.56v1.56H151.205z M148.085,9.597v-1.56h1.56v1.56H148.085z M148.085,12.717v-1.56
		h1.56v1.56H148.085z M149.645,8.038v-1.56h1.56v1.56H149.645z M149.645,14.277v-1.56h1.56v1.56H149.645z M151.205,15.837v-1.56
		h1.56v1.56H151.205z M151.205,20.516v-1.56h1.56v1.56H151.205z M151.205,26.755v-1.56h1.56v1.56H151.205z M154.325,29.875v-4.68
		h-1.56v-1.56h1.56v-4.68h-1.56v-1.56h1.56v-1.56h1.56v12.479h4.68V11.157h-4.68v-1.56h1.56v-1.56h1.56v1.56h3.12v17.158h1.56v1.561
		h-1.56v1.56H154.325z M152.765,14.277v-1.56h1.56v1.56H152.765z M154.325,6.478v-1.56h1.56v1.56H154.325z M154.325,12.717v-1.56
		h1.56v1.56H154.325z M155.884,8.038v-1.56h1.56v1.56H155.884z M159.004,8.038v-1.56h1.56v1.56H159.004z M160.564,6.478v-1.56h1.56
		v1.56H160.564z M166.803,23.636V6.478h-1.56v-1.56h-3.12v-1.56h6.239v20.278H166.803z M162.124,9.597v-1.56h1.56v1.56H162.124z
		 M163.684,8.038v-1.56h1.56v1.56H163.684z M163.684,26.755v-1.56h1.56v1.56H163.684z M165.243,25.195v-1.56h1.56v1.56H165.243z"/>
	<path fill="#25DFDF" d="M182.693,29.875V9.597h1.561v-1.56h1.56v1.56h10.919v1.56h-12.479v17.158h12.479v1.56H182.693z
		 M185.813,8.038v-1.56h1.56v1.56H185.813z M187.373,6.478v-1.56h1.56v1.56H187.373z M199.852,6.478v-1.56h-10.919v-1.56h14.039
		v1.56h-1.561v1.56H199.852z M188.933,17.396v-1.56h7.8v1.56H188.933z M188.933,23.636v-1.56h7.8v1.56H188.933z M196.732,9.597
		v-1.56h1.56v1.56H196.732z M196.732,12.717v-1.56h1.56v1.56H196.732z M196.732,20.516v-1.56h3.119v1.56H196.732z M196.732,28.315
		v-1.561h1.56v1.561H196.732z M198.292,8.038v-1.56h1.56v1.56H198.292z M198.292,14.277v-1.56h1.56v1.56H198.292z M198.292,26.755
		v-1.56h1.56v1.56H198.292z M199.852,15.837v-1.56h1.56v1.56H199.852z M199.852,18.956v-1.56h1.56v1.56H199.852z M199.852,22.076
		v-1.561h1.56v1.561H199.852z M199.852,25.195v-1.56h1.56v1.56H199.852z M201.411,17.396v-1.56h1.561v1.56H201.411z M201.411,23.636
		v-1.56h1.561v1.56H201.411z M202.972,6.478v-1.56h1.56v1.56H202.972z M202.972,15.837v-1.56h1.56v1.56H202.972z M202.972,22.076
		v-1.561h1.56v1.561H202.972z M204.531,8.038v-1.56h1.56v1.56H204.531z M204.531,14.277v-1.56h1.56v1.56H204.531z M204.531,20.516
		v-1.56h1.56v1.56H204.531z M206.091,9.597v-1.56h1.56v1.56H206.091z M206.091,12.717v-1.56h1.56v1.56H206.091z M206.091,15.837
		v-1.56h1.56v1.56H206.091z M206.091,18.956v-1.56h1.56v1.56H206.091z M207.65,11.157v-1.56h1.561v1.56H207.65z M207.65,17.396
		v-1.56h1.561v1.56H207.65z"/>
	<path fill="#25DFDF" d="M211.063,29.875V9.597h1.561v-1.56h1.56v1.56h17.158v17.158h1.56v1.561h-1.56v1.56H211.063z
		 M229.781,28.315V11.157h-17.158v17.158H229.781z M214.183,8.038v-1.56h1.56v1.56H214.183z M215.742,6.478v-1.56h1.561v1.56
		H215.742z M236.02,23.636V6.478h-1.56v-1.56h-17.157v-1.56h20.277v20.278H236.02z M217.303,23.636v-7.799h7.799v7.799H217.303z
		 M223.541,22.076v-3.12h-1.56v-1.56h-3.119v3.119h1.56v1.561H223.541z M220.422,20.516v-1.56h1.56v1.56H220.422z M231.341,9.597
		v-1.56h1.56v1.56H231.341z M232.9,8.038v-1.56h1.56v1.56H232.9z M232.9,26.755v-1.56h1.56v1.56H232.9z M234.46,25.195v-1.56h1.56
		v1.56H234.46z"/>
	<path fill="#25DFDF" d="M239.432,29.875V9.597h1.561v-1.56h1.56v1.56h4.68v1.56h-6.239v17.158h4.68V15.837h1.56v4.679h1.56v3.12
		h-1.56v3.119h1.56v1.561h-1.56v1.56H239.432z M242.552,8.038v-1.56h1.56v1.56H242.552z M244.111,6.478v-1.56h1.561v1.56H244.111z
		 M250.351,6.478v-1.56h-4.679v-1.56h7.799v1.56h-1.56v1.56H250.351z M247.231,9.597v-1.56h1.56v1.56H247.231z M247.231,12.717
		v-1.56h1.56v1.56H247.231z M248.791,8.038v-1.56h1.56v1.56H248.791z M248.791,15.837v-3.12h1.56v3.12H248.791z M248.791,26.755
		v-3.119h1.56v3.119H248.791z M251.911,29.875v-1.56h6.239V11.157h-4.68v12.479h-1.56v-4.68h-1.561v-3.119h1.561v-6.24h1.56v-1.56
		h1.56v1.56h4.68v17.158h1.56v1.561h-1.56v1.56H251.911z M250.351,28.315v-1.561h1.561v1.561H250.351z M253.471,6.478v-1.56h1.56
		v1.56H253.471z M255.03,8.038v-1.56h1.56v1.56H255.03z M256.59,6.478v-1.56h1.561v1.56H256.59z M264.39,23.636V6.478h-1.561v-1.56
		h-4.679v-1.56h7.799v20.278H264.39z M259.71,9.597v-1.56h1.56v1.56H259.71z M261.27,8.038v-1.56h1.56v1.56H261.27z M261.27,26.755
		v-1.56h1.56v1.56H261.27z M262.829,25.195v-1.56h1.561v1.56H262.829z"/>
	<path fill="#25DFDF" d="M267.802,29.875V9.597h1.56v-1.56h1.56v1.56h4.68v10.918h1.56v1.561h3.12v-3.12h-1.561v-1.56h1.561V6.478
		h-1.561v-1.56h-4.679v-1.56h7.799v4.68h1.56v1.56h4.68v17.158h1.56v1.561h-1.56v1.56H267.802z M286.52,28.315V11.157h-4.68v12.479
		h-7.799V11.157h-4.68v17.158H286.52z M270.921,8.038v-1.56h1.56v1.56H270.921z M272.48,6.478v-1.56h1.561v1.56H272.48z
		 M275.601,9.597v-1.56h1.56v1.56H275.601z M277.16,8.038v-1.56h1.56v1.56H277.16z M277.16,20.516v-1.56h1.56v1.56H277.16z
		 M283.399,8.038v-1.56h1.56v1.56H283.399z M284.959,6.478v-1.56h1.561v1.56H284.959z M292.759,23.636V6.478h-1.561v-1.56h-4.679
		v-1.56h7.799v20.278H292.759z M288.079,9.597v-1.56h1.56v1.56H288.079z M289.639,8.038v-1.56h1.56v1.56H289.639z M289.639,26.755
		v-1.56h1.56v1.56H289.639z M291.198,25.195v-1.56h1.561v1.56H291.198z"/>
	<path fill="#25DFDF" d="M296.171,29.875V9.597h1.56v-1.56h1.56v1.56h17.158v4.68h1.56v1.56h-1.56v10.918h1.56v1.561h-1.56v1.56
		H296.171z M314.889,28.315V17.396H302.41v-1.56h12.479v-4.68H297.73v10.919h12.479v1.56H297.73v4.68H314.889z M299.29,8.038v-1.56
		h1.56v1.56H299.29z M300.85,6.478v-1.56h1.561v1.56H300.85z M321.128,23.636V12.717h-1.561v-1.56h1.561v-4.68h-1.561v-1.56H302.41
		v-1.56h20.277v20.278H321.128z M316.448,9.597v-1.56h1.56v1.56H316.448z M318.008,8.038v-1.56h1.56v1.56H318.008z M318.008,14.277
		v-1.56h1.56v1.56H318.008z M318.008,26.755v-1.56h1.56v1.56H318.008z M319.567,25.195v-1.56h1.561v1.56H319.567z"/>
	<path fill="#25DFDF" d="M324.54,29.875V9.597h1.56v-1.56h1.56v1.56h4.68v10.918h1.56v1.561h-1.56v4.679h1.56v1.561h-1.56v1.56
		H324.54z M330.779,22.076V11.157h-4.68v10.919H330.779z M330.779,28.315v-4.68h-4.68v4.68H330.779z M327.659,8.038v-1.56h1.56v1.56
		H327.659z M329.219,6.478v-1.56h1.561v1.56H329.219z M337.019,23.636v-4.68h-1.56v-1.56h1.56V6.478h-1.56v-1.56h-4.68v-1.56h7.799
		v20.278H337.019z M332.339,9.597v-1.56h1.56v1.56H332.339z M333.898,8.038v-1.56h1.561v1.56H333.898z M333.898,20.516v-1.56h1.561
		v1.56H333.898z M333.898,26.755v-1.56h1.561v1.56H333.898z M335.459,25.195v-1.56h1.56v1.56H335.459z"/>
</g>
</svg>
