<?xml version="1.0" encoding="utf-8"?>
<!-- Generator: Adobe Illustrator 16.0.0, SVG Export Plug-In . SVG Version: 6.00 Build 0)  -->
<!DOCTYPE svg PUBLIC "-//W3C//DTD SVG 1.1//EN" "http://www.w3.org/Graphics/SVG/1.1/DTD/svg11.dtd">
<svg version="1.1" xmlns="http://www.w3.org/2000/svg" xmlns:xlink="http://www.w3.org/1999/xlink" x="0px" y="0px"
	 width="159.859px" height="50.916px" viewBox="0 0 159.859 50.916" enable-background="new 0 0 159.859 50.916"
	 xml:space="preserve">
<g id="now" display="none">
	<g display="inline">
		<path fill="#D3D3D3" d="M0,50.916V11.98h2.995V8.985H5.99v2.995h8.985v2.995H2.995V47.92h8.985V23.96h2.995v8.985h2.995v5.99
			h-2.995v5.99h2.995v2.995h-2.995v2.995H0z M5.99,8.985V5.99h2.995v2.995H5.99z M8.985,5.99V2.995h2.995V5.99H8.985z M20.965,5.99
			V2.995H11.98V0h14.975v2.995H23.96V5.99H20.965z M14.975,11.98V8.985h2.995v2.995H14.975z M14.975,17.97v-2.995h2.995v2.995
			H14.975z M17.97,8.985V5.99h2.995v2.995H17.97z M17.97,23.96v-5.99h2.995v5.99H17.97z M17.97,44.925v-5.99h2.995v5.99H17.97z
			 M23.96,50.916V47.92h11.98V14.975h-8.985v23.96H23.96V29.95h-2.995v-5.99h2.995V11.98h2.995V8.985h2.995v2.995h8.985v32.945
			h2.995v2.995h-2.995v2.995H23.96z M20.965,47.92v-2.995h2.995v2.995H20.965z M26.955,5.99V2.995h2.995V5.99H26.955z M29.95,8.985
			V5.99h2.995v2.995H29.95z M32.945,5.99V2.995h2.995V5.99H32.945z M47.92,38.936V5.99h-2.995V2.995H35.94V0h14.975v38.936H47.92z
			 M38.936,11.98V8.985h2.995v2.995H38.936z M41.931,8.985V5.99h2.995v2.995H41.931z M41.931,44.925V41.93h2.995v2.995H41.931z
			 M44.925,41.93v-2.995h2.995v2.995H44.925z"/>
		<path fill="#D3D3D3" d="M54.472,50.916V11.98h2.995V8.985h2.995v2.995h32.945v32.945h2.995v2.995h-2.995v2.995H54.472z
			 M90.412,47.92V14.975H57.467V47.92H90.412z M60.462,8.985V5.99h2.995v2.995H60.462z M63.457,5.99V2.995h2.995V5.99H63.457z
			 M102.393,38.936V5.99h-2.995V2.995H66.452V0h38.936v38.936H102.393z M66.452,38.936V23.96h14.975v14.975H66.452z M78.432,35.94
			v-5.99h-2.995v-2.995h-5.99v5.99h2.995v2.995H78.432z M72.442,32.945V29.95h2.995v2.995H72.442z M93.407,11.98V8.985h2.995v2.995
			H93.407z M96.402,8.985V5.99h2.995v2.995H96.402z M96.402,44.925V41.93h2.995v2.995H96.402z M99.397,41.93v-2.995h2.995v2.995
			H99.397z"/>
		<path fill="#D3D3D3" d="M108.944,50.916V11.98h2.995V8.985h2.995v2.995h8.985v20.965h2.995v2.995h-2.995v2.995h-2.995v-23.96
			h-8.985V47.92h8.985v2.995H108.944z M114.934,8.985V5.99h2.995v2.995H114.934z M117.929,5.99V2.995h2.995V5.99H117.929z
			 M135.899,50.916V47.92h8.985V14.975h-8.985v23.96h-2.995V35.94h-2.995v-2.995h2.995V29.95h-2.995v-2.995h2.995V5.99h-2.995V2.995
			h-8.985V0h14.976v8.985h2.995v2.995h8.985v32.945h2.995v2.995h-2.995v2.995H135.899z M120.924,47.92v-2.995h2.995v2.995H120.924z
			 M123.919,11.98V8.985h2.995v2.995H123.919z M123.919,44.925V41.93h2.995v2.995H123.919z M126.914,8.985V5.99h2.995v2.995H126.914
			z M126.914,32.945V29.95h2.995v2.995H126.914z M126.914,41.93v-2.995h2.995v2.995H126.914z M129.909,44.925V41.93h2.995v2.995
			H129.909z M132.904,47.92v-2.995h2.995v2.995H132.904z M138.895,8.985V5.99h2.995v2.995H138.895z M141.889,5.99V2.995h2.995V5.99
			H141.889z M156.864,38.936V5.99h-2.995V2.995h-8.985V0h14.975v38.936H156.864z M147.879,11.98V8.985h2.995v2.995H147.879z
			 M150.875,8.985V5.99h2.995v2.995H150.875z M150.875,44.925V41.93h2.995v2.995H150.875z M153.869,41.93v-2.995h2.995v2.995
			H153.869z"/>
	</g>
</g>
<g id="sat">
	<g>
		<path fill="#25DFDF" d="M0,50.916V12.418h2.962V9.457h2.961v2.961h32.575v8.884h2.961v2.961h-2.961v20.729h2.961v2.962h-2.961
			v2.961H0z M35.536,47.955v-20.73h-23.69v-2.961h23.69v-8.884H2.962v20.729h23.69v2.961H2.962v8.885H35.536z M5.923,9.457V6.495
			h2.961v2.961H5.923z M8.884,6.495V3.534h2.962v2.961H8.884z M47.382,39.07V18.341H44.42v-2.961h2.961V6.495H44.42V3.534H11.846
			V0.572h38.498V39.07H47.382z M38.498,12.418V9.457h2.961v2.961H38.498z M41.459,9.457V6.495h2.961v2.961H41.459z M41.459,21.302
			v-2.961h2.961v2.961H41.459z M41.459,44.993v-2.961h2.961v2.961H41.459z M44.42,42.032V39.07h2.961v2.962H44.42z"/>
		<path fill="#25DFDF" d="M53.86,50.916V12.418h2.961V9.457h2.961v2.961h32.575v32.575h2.961v2.962h-2.961v2.961H77.551v-8.884
			H74.59V39.07h-5.923v5.923h2.961v2.962h-2.961v2.961H53.86z M89.396,47.955V15.379H56.821v32.575h8.884V36.109h14.807v11.846
			H89.396z M59.783,9.457V6.495h2.961v2.961H59.783z M62.744,6.495V3.534h2.961v2.961H62.744z M101.241,39.07V6.495H98.28V3.534
			H65.705V0.572h38.498V39.07H101.241z M65.705,27.225v-2.961h14.807v2.961H65.705z M71.628,44.993v-2.961h2.962v2.961H71.628z
			 M92.357,12.418V9.457h2.961v2.961H92.357z M95.318,9.457V6.495h2.962v2.961H95.318z M95.318,44.993v-2.961h2.962v2.961H95.318z
			 M98.28,42.032V39.07h2.961v2.962H98.28z"/>
		<path fill="#25DFDF" d="M119.565,50.916V27.225h-11.846V12.418h2.962V9.457h2.961v2.961h32.575v8.884h2.961v2.961h-2.961V39.07
			h-2.961V27.225h-8.884v17.768h2.961v2.962h-2.961v2.961H119.565z M131.411,47.955V24.263h11.845v-8.884h-32.575v8.884h11.845
			v23.691H131.411z M113.642,9.457V6.495h2.962v2.961H113.642z M116.604,6.495V3.534h2.961v2.961H116.604z M155.102,15.379V6.495
			h-2.962V3.534h-32.575V0.572h38.498v14.807H155.102z M137.333,44.993v-2.961h2.961v2.961H137.333z M140.294,42.032V39.07h2.961
			v2.962H140.294z M146.217,12.418V9.457h2.961v2.961H146.217z M149.179,9.457V6.495h2.961v2.961H149.179z M149.179,21.302v-2.961
			h2.961v2.961H149.179z M152.14,18.341v-2.961h2.962v2.961H152.14z"/>
	</g>
</g>
<g id="wed" display="none">
	<g display="inline">
		<path fill="#EC3CE0" d="M0,50.691V11.927h2.982V8.946h2.982v2.981h8.945V32.8h2.982v2.982h-2.982v2.982h-2.982V14.909H2.982v32.8
			h8.945v2.982H0z M5.964,8.946V5.964h2.981v2.982H5.964z M8.945,5.964V2.982h2.982v2.982H8.945z M26.836,50.691v-2.982h8.946v-32.8
			h-8.946v23.855h-2.982v-2.982h-2.981V32.8h2.981v-2.982h-2.981v-2.982h2.981V5.964h-2.981V2.982h-8.946V0h14.909v8.946h2.982
			v2.981h8.946v32.8h2.982v2.982h-2.982v2.982H26.836z M11.927,47.709v-2.982h2.982v2.982H11.927z M14.909,11.927V8.946h2.982v2.981
			H14.909z M14.909,44.728v-2.981h2.982v2.981H14.909z M17.891,8.946V5.964h2.982v2.982H17.891z M17.891,32.8v-2.982h2.982V32.8
			H17.891z M17.891,41.746v-2.982h2.982v2.982H17.891z M20.873,44.728v-2.981h2.981v2.981H20.873z M23.854,47.709v-2.982h2.982
			v2.982H23.854z M29.818,8.946V5.964H32.8v2.982H29.818z M32.8,5.964V2.982h2.982v2.982H32.8z M47.709,38.764v-32.8h-2.982V2.982
			h-8.945V0h14.909v38.764H47.709z M38.764,11.927V8.946h2.982v2.981H38.764z M41.746,8.946V5.964h2.981v2.982H41.746z
			 M41.746,44.728v-2.981h2.981v2.981H41.746z M44.728,41.746v-2.982h2.982v2.982H44.728z"/>
		<path fill="#EC3CE0" d="M54.232,50.691V11.927h2.982V8.946h2.982v2.981h32.8v8.946h2.982v2.982h8.945v14.909h-2.982v-8.946H98.96
			v-2.982h-8.945v2.982h-2.982v-2.982h-5.964V32.8h2.982v2.982h8.946v8.945h2.982v2.982h-2.982v2.982H54.232z M90.015,47.709v-8.945
			H66.16v-2.982h11.927v-8.946H66.16v-2.981h23.855v-8.946h-32.8v32.8H90.015z M60.196,8.946V5.964h2.981v2.982H60.196z
			 M63.178,5.964V2.982h2.982v2.982H63.178z M101.942,14.909V5.964H98.96V2.982h-32.8V0h38.764v14.909H101.942z M84.051,32.8v-2.982
			h2.982V32.8H84.051z M92.997,11.927V8.946h2.982v2.981H92.997z M92.997,35.782V32.8h2.982v2.982H92.997z M95.979,8.946V5.964
			h2.981v2.982H95.979z M95.979,20.873v-2.982h2.981v2.982H95.979z M95.979,32.8v-2.982h2.981V32.8H95.979z M95.979,44.728v-2.981
			h2.981v2.981H95.979z M98.96,17.891v-2.982h2.982v2.982H98.96z M98.96,41.746v-2.982h2.982v2.982H98.96z"/>
		<path fill="#EC3CE0" d="M108.465,50.691V11.927h2.982V8.946h2.982v2.981h20.873v2.982h-23.854v32.8h23.854v2.982H108.465z
			 M114.429,8.946V5.964h2.981v2.982H114.429z M117.41,5.964V2.982h2.982v2.982H117.41z M141.265,5.964V2.982h-20.873V0h26.836
			v2.982h-2.981v2.982H141.265z M120.392,38.764V23.855h8.946v2.981h-5.964V32.8h2.982v2.982h2.982v2.982H120.392z M126.356,32.8
			v-2.982h2.982V32.8H126.356z M129.338,29.818v-2.982h2.981v2.982H129.338z M129.338,35.782V32.8h2.981v2.982H129.338z
			 M132.319,32.8v-2.982h2.982V32.8H132.319z M135.301,11.927V8.946h2.982v2.981H135.301z M135.301,17.891v-2.982h2.982v2.982
			H135.301z M135.301,47.709v-2.982h2.982v2.982H135.301z M138.283,8.946V5.964h2.982v2.982H138.283z M138.283,20.873v-2.982h2.982
			v2.982H138.283z M138.283,44.728v-2.981h2.982v2.981H138.283z M141.265,23.855v-2.982h2.982v2.982H141.265z M141.265,41.746
			v-2.982h2.982v2.982H141.265z M144.247,38.764V23.855h2.981V32.8h2.982v2.982h-2.982v2.982H144.247z M147.229,5.964V2.982h2.982
			v2.982H147.229z M147.229,23.855v-2.982h2.982v2.982H147.229z M150.211,8.946V5.964h2.981v2.982H150.211z M150.211,20.873v-2.982
			h2.981v2.982H150.211z M150.211,32.8v-2.982h2.981V32.8H150.211z M153.192,11.927V8.946h2.982v2.981H153.192z M156.174,26.836
			v-8.945h-2.982v-2.982h2.982v-2.982h2.982v14.909H156.174z M153.192,29.818v-2.982h2.982v2.982H153.192z"/>
	</g>
</g>
<g id="ico" display="none">
	<g display="inline">
		<path fill="#D3D3D3" d="M0,50.745V35.82h2.985v-2.985H5.97v2.985h5.97v-5.97H8.955v-2.985H0V11.94h2.985V8.955H5.97v2.985h32.835
			v8.955h2.985v2.985h8.955v14.925H47.76V29.85h-2.985v-2.985H35.82v2.985h-2.985v-2.985h-5.97v5.97h2.985v2.985h8.955v8.955h2.985
			v2.985h-2.985v2.985H0z M35.82,47.76v-8.955H23.88V23.88h11.94v-8.955H2.985v8.955h11.94v14.925H2.985v8.955H35.82z M5.97,8.955
			V5.97h2.985v2.985H5.97z M5.97,32.835V29.85h2.985v2.985H5.97z M8.955,5.97V2.985h2.985V5.97H8.955z M47.76,14.925V5.97h-2.985
			V2.985H11.94V0h38.805v14.925H47.76z M29.85,32.835V29.85h2.985v2.985H29.85z M38.805,11.94V8.955h2.985v2.985H38.805z
			 M38.805,35.82v-2.985h2.985v2.985H38.805z M41.79,8.955V5.97h2.985v2.985H41.79z M41.79,20.895V17.91h2.985v2.985H41.79z
			 M41.79,32.835V29.85h2.985v2.985H41.79z M41.79,44.775V41.79h2.985v2.985H41.79z M44.774,17.91v-2.985h2.985v2.985H44.774z
			 M44.774,41.79v-2.985h2.985v2.985H44.774z"/>
		<path fill="#D3D3D3" d="M54.289,50.745V11.94h2.985V8.955h2.985v2.985h32.834v8.955h2.985v2.985h8.955v14.925h-2.985V29.85h-2.985
			v-2.985H78.169v2.985h-2.985v-2.985h-5.97v5.97h2.985v2.985h20.895v8.955h2.985v2.985h-2.985v2.985H54.289z M90.109,47.76v-8.955
			H66.229V23.88h23.879v-8.955H57.274V47.76H90.109z M60.259,8.955V5.97h2.985v2.985H60.259z M63.244,5.97V2.985h2.985V5.97H63.244z
			 M102.049,14.925V5.97h-2.985V2.985H66.229V0h38.805v14.925H102.049z M72.199,32.835V29.85h2.985v2.985H72.199z M93.094,11.94
			V8.955h2.985v2.985H93.094z M93.094,35.82v-2.985h2.985v2.985H93.094z M96.079,8.955V5.97h2.985v2.985H96.079z M96.079,20.895
			V17.91h2.985v2.985H96.079z M96.079,32.835V29.85h2.985v2.985H96.079z M96.079,44.775V41.79h2.985v2.985H96.079z M99.064,17.91
			v-2.985h2.985v2.985H99.064z M99.064,41.79v-2.985h2.985v2.985H99.064z"/>
		<path fill="#D3D3D3" d="M108.579,50.745V11.94h2.985V8.955h2.985v2.985h32.834v32.835h2.985v2.985h-2.985v2.985H108.579z
			 M144.398,47.76V14.925h-32.835V47.76H144.398z M114.549,8.955V5.97h2.985v2.985H114.549z M117.534,5.97V2.985h2.985V5.97H117.534
			z M156.338,38.805V5.97h-2.985V2.985h-32.835V0h38.805v38.805H156.338z M120.519,38.805V23.88h14.925v14.925H120.519z
			 M132.458,35.82v-5.97h-2.985v-2.985h-5.97v5.97h2.985v2.985H132.458z M126.488,32.835V29.85h2.985v2.985H126.488z M147.383,11.94
			V8.955h2.985v2.985H147.383z M150.368,8.955V5.97h2.985v2.985H150.368z M150.368,44.775V41.79h2.985v2.985H150.368z
			 M153.354,41.79v-2.985h2.985v2.985H153.354z"/>
	</g>
</g>
</svg>
