<?xml version="1.0" encoding="utf-8"?>
<!-- Generator: Adobe Illustrator 16.0.0, SVG Export Plug-In . SVG Version: 6.00 Build 0)  -->
<!DOCTYPE svg PUBLIC "-//W3C//DTD SVG 1.1//EN" "http://www.w3.org/Graphics/SVG/1.1/DTD/svg11.dtd">
<svg version="1.1" id="sat" xmlns="http://www.w3.org/2000/svg" xmlns:xlink="http://www.w3.org/1999/xlink" x="0px" y="0px"
	 width="159.859px" height="50.916px" viewBox="0 0 159.859 50.916" enable-background="new 0 0 159.859 50.916"
	 xml:space="preserve">
<g>
	<path fill="#D3D3D3" d="M0,50.916V12.418h2.962V9.457h2.961v2.961h32.575v8.884h2.961v2.961h-2.961v20.729h2.961v2.962h-2.961
		v2.961H0z M35.536,47.955v-20.73h-23.69v-2.961h23.69v-8.884H2.962v20.729h23.69v2.961H2.962v8.885H35.536z M5.923,9.457V6.495
		h2.961v2.961H5.923z M8.884,6.495V3.534h2.962v2.961H8.884z M47.382,39.07V18.341H44.42v-2.961h2.961V6.495H44.42V3.534H11.846
		V0.572h38.498V39.07H47.382z M38.498,12.418V9.457h2.961v2.961H38.498z M41.459,9.457V6.495h2.961v2.961H41.459z M41.459,21.302
		v-2.961h2.961v2.961H41.459z M41.459,44.993v-2.961h2.961v2.961H41.459z M44.42,42.032V39.07h2.961v2.962H44.42z"/>
	<path fill="#D3D3D3" d="M53.86,50.916V12.418h2.961V9.457h2.961v2.961h32.575v32.575h2.961v2.962h-2.961v2.961H77.551v-8.884H74.59
		V39.07h-5.923v5.923h2.961v2.962h-2.961v2.961H53.86z M89.396,47.955V15.379H56.821v32.575h8.884V36.109h14.807v11.846H89.396z
		 M59.783,9.457V6.495h2.961v2.961H59.783z M62.744,6.495V3.534h2.961v2.961H62.744z M101.241,39.07V6.495H98.28V3.534H65.705V0.572
		h38.498V39.07H101.241z M65.705,27.225v-2.961h14.807v2.961H65.705z M71.628,44.993v-2.961h2.962v2.961H71.628z M92.357,12.418
		V9.457h2.961v2.961H92.357z M95.318,9.457V6.495h2.962v2.961H95.318z M95.318,44.993v-2.961h2.962v2.961H95.318z M98.28,42.032
		V39.07h2.961v2.962H98.28z"/>
	<path fill="#D3D3D3" d="M119.565,50.916V27.225h-11.846V12.418h2.962V9.457h2.961v2.961h32.575v8.884h2.961v2.961h-2.961V39.07
		h-2.961V27.225h-8.884v17.768h2.961v2.962h-2.961v2.961H119.565z M131.411,47.955V24.263h11.845v-8.884h-32.575v8.884h11.845
		v23.691H131.411z M113.642,9.457V6.495h2.962v2.961H113.642z M116.604,6.495V3.534h2.961v2.961H116.604z M155.102,15.379V6.495
		h-2.962V3.534h-32.575V0.572h38.498v14.807H155.102z M137.333,44.993v-2.961h2.961v2.961H137.333z M140.294,42.032V39.07h2.961
		v2.962H140.294z M146.217,12.418V9.457h2.961v2.961H146.217z M149.179,9.457V6.495h2.961v2.961H149.179z M149.179,21.302v-2.961
		h2.961v2.961H149.179z M152.14,18.341v-2.961h2.962v2.961H152.14z"/>
</g>
</svg>
