<?xml version="1.0" encoding="utf-8"?>
<!-- Generator: Adobe Illustrator 16.0.0, SVG Export Plug-In . SVG Version: 6.00 Build 0)  -->
<!DOCTYPE svg PUBLIC "-//W3C//DTD SVG 1.1//EN" "http://www.w3.org/Graphics/SVG/1.1/DTD/svg11.dtd">
<svg version="1.1" id="Layer_2" xmlns="http://www.w3.org/2000/svg" xmlns:xlink="http://www.w3.org/1999/xlink" x="0px" y="0px"
	 width="158.472px" height="50.473px" viewBox="0 0.443 158.472 50.473" enable-background="new 0 0.443 158.472 50.473"
	 xml:space="preserve">
<g>
	<path fill="#28E973" d="M14.845,30.133v-2.969h-2.969V15.288H2.969v11.876H0V12.319h2.969V9.35h2.969v2.969h8.907v11.876h2.969
		v5.938H14.845z M2.969,30.133v-2.969h2.969v2.969H2.969z M5.938,9.35V6.381h2.969V9.35H5.938z M5.938,33.102v-2.969h2.969v2.969
		H5.938z M8.907,6.381V3.412h2.969v2.969H8.907z M8.907,36.07v-2.969h2.969v2.969H8.907z M35.628,39.04v-8.907h-2.969v-2.969h2.969
		V15.288h-8.907v11.876h-2.969v-5.938h-2.969v-2.969h2.969V6.381h-2.969V3.412h-8.907V0.443h14.845v5.938h2.969V9.35h-2.969v2.969
		h11.876v8.907h2.969v2.969h-2.969V39.04H35.628z M11.876,50.916V36.07h2.969v11.877h8.907V36.07h2.969v8.907h2.969v2.97h-2.969
		v2.969H11.876z M14.845,12.319V9.35h2.969v2.969H14.845z M17.814,9.35V6.381h2.969V9.35H17.814z M17.814,24.195v-2.969h2.969v2.969
		H17.814z M17.814,33.102v-2.969h2.969v2.969H17.814z M20.783,30.133v-2.969h2.969v2.969H20.783z M26.721,36.07v-2.969h2.969v2.969
		H26.721z M29.69,6.381V3.412h2.969v2.969H29.69z M29.69,33.102v-2.969h2.969v2.969H29.69z M29.69,44.978v-2.969h2.969v2.969H29.69z
		 M47.504,15.288V6.381h-2.969V3.412H32.659V0.443h17.814v14.845H47.504z M32.659,42.009V39.04h2.969v2.969H32.659z M38.597,12.319
		V9.35h2.969v2.969H38.597z M41.566,9.35V6.381h2.969V9.35H41.566z M41.566,21.226v-2.969h2.969v2.969H41.566z M44.535,18.257
		v-2.969h2.969v2.969H44.535z"/>
	<path fill="#28E973" d="M53.999,50.916V12.319h2.969V9.35h2.969v2.969h32.658v8.907h2.97v2.969h8.907V39.04h-2.97v-8.907h-2.969
		v-2.969h-8.907v2.969h-2.969v-2.969H80.72v5.938h2.969v2.969h8.906v8.907h2.97v2.97h-2.97v2.969H53.999z M89.627,47.947V39.04
		H65.875v-2.97h11.876v-8.906H65.875v-2.969h23.752v-8.907H56.968v32.659H89.627z M59.937,9.35V6.381h2.969V9.35H59.937z
		 M62.906,6.381V3.412h2.969v2.969H62.906z M101.503,15.288V6.381h-2.969V3.412H65.875V0.443h38.598v14.845H101.503z M83.689,33.102
		v-2.969h2.969v2.969H83.689z M92.595,12.319V9.35h2.97v2.969H92.595z M92.595,36.07v-2.969h2.97v2.969H92.595z M95.565,9.35V6.381
		h2.969V9.35H95.565z M95.565,21.226v-2.969h2.969v2.969H95.565z M95.565,33.102v-2.969h2.969v2.969H95.565z M95.565,44.978v-2.969
		h2.969v2.969H95.565z M98.534,18.257v-2.969h2.969v2.969H98.534z M98.534,42.009V39.04h2.969v2.969H98.534z"/>
	<path fill="#28E973" d="M107.998,50.916V12.319h2.97V9.35h2.969v2.969h32.659v8.907h2.969v2.969h-2.969v20.783h2.969v2.97h-2.969
		v2.969H107.998z M143.626,47.947V27.164h-23.751v-2.969h23.751v-8.907h-32.658V36.07h23.751v2.97h-23.751v8.907H143.626z
		 M113.936,9.35V6.381h2.969V9.35H113.936z M116.905,6.381V3.412h2.97v2.969H116.905z M155.503,39.04V18.257h-2.97v-2.969h2.97
		V6.381h-2.97V3.412h-32.658V0.443h38.597V39.04H155.503z M146.595,12.319V9.35h2.969v2.969H146.595z M149.564,9.35V6.381h2.969
		V9.35H149.564z M149.564,21.226v-2.969h2.969v2.969H149.564z M149.564,44.978v-2.969h2.969v2.969H149.564z M152.533,42.009V39.04
		h2.97v2.969H152.533z"/>
</g>
</svg>
